%TF.GenerationSoftware,KiCad,Pcbnew,7.0.5*%
%TF.CreationDate,2023-11-17T15:06:44+01:00*%
%TF.ProjectId,canbus_transeiver_adapter,63616e62-7573-45f7-9472-616e73656976,rev?*%
%TF.SameCoordinates,Original*%
%TF.FileFunction,Copper,L2,Bot*%
%TF.FilePolarity,Positive*%
%FSLAX46Y46*%
G04 Gerber Fmt 4.6, Leading zero omitted, Abs format (unit mm)*
G04 Created by KiCad (PCBNEW 7.0.5) date 2023-11-17 15:06:44*
%MOMM*%
%LPD*%
G01*
G04 APERTURE LIST*
G04 Aperture macros list*
%AMRoundRect*
0 Rectangle with rounded corners*
0 $1 Rounding radius*
0 $2 $3 $4 $5 $6 $7 $8 $9 X,Y pos of 4 corners*
0 Add a 4 corners polygon primitive as box body*
4,1,4,$2,$3,$4,$5,$6,$7,$8,$9,$2,$3,0*
0 Add four circle primitives for the rounded corners*
1,1,$1+$1,$2,$3*
1,1,$1+$1,$4,$5*
1,1,$1+$1,$6,$7*
1,1,$1+$1,$8,$9*
0 Add four rect primitives between the rounded corners*
20,1,$1+$1,$2,$3,$4,$5,0*
20,1,$1+$1,$4,$5,$6,$7,0*
20,1,$1+$1,$6,$7,$8,$9,0*
20,1,$1+$1,$8,$9,$2,$3,0*%
G04 Aperture macros list end*
%TA.AperFunction,ComponentPad*%
%ADD10C,1.600000*%
%TD*%
%TA.AperFunction,ComponentPad*%
%ADD11O,1.600000X1.600000*%
%TD*%
%TA.AperFunction,ComponentPad*%
%ADD12R,2.500000X1.640000*%
%TD*%
%TA.AperFunction,ComponentPad*%
%ADD13O,2.500000X1.640000*%
%TD*%
%TA.AperFunction,ComponentPad*%
%ADD14R,2.200000X2.200000*%
%TD*%
%TA.AperFunction,ComponentPad*%
%ADD15O,2.200000X2.200000*%
%TD*%
%TA.AperFunction,ComponentPad*%
%ADD16R,1.640000X2.500000*%
%TD*%
%TA.AperFunction,ComponentPad*%
%ADD17O,1.640000X2.500000*%
%TD*%
%TA.AperFunction,ComponentPad*%
%ADD18O,2.200000X1.600000*%
%TD*%
%TA.AperFunction,ComponentPad*%
%ADD19R,2.400000X2.400000*%
%TD*%
%TA.AperFunction,ComponentPad*%
%ADD20O,2.400000X2.400000*%
%TD*%
%TA.AperFunction,ComponentPad*%
%ADD21O,2.500000X1.600000*%
%TD*%
%TA.AperFunction,ComponentPad*%
%ADD22R,2.400000X1.600000*%
%TD*%
%TA.AperFunction,ComponentPad*%
%ADD23O,2.400000X1.600000*%
%TD*%
%TA.AperFunction,SMDPad,CuDef*%
%ADD24RoundRect,0.250000X-0.350000X-0.450000X0.350000X-0.450000X0.350000X0.450000X-0.350000X0.450000X0*%
%TD*%
%TA.AperFunction,SMDPad,CuDef*%
%ADD25RoundRect,0.250000X0.900000X-1.500000X0.900000X1.500000X-0.900000X1.500000X-0.900000X-1.500000X0*%
%TD*%
%TA.AperFunction,SMDPad,CuDef*%
%ADD26RoundRect,0.237500X0.237500X-0.300000X0.237500X0.300000X-0.237500X0.300000X-0.237500X-0.300000X0*%
%TD*%
%TA.AperFunction,ViaPad*%
%ADD27C,2.000000*%
%TD*%
%TA.AperFunction,Conductor*%
%ADD28C,1.000000*%
%TD*%
%TA.AperFunction,Conductor*%
%ADD29C,0.500000*%
%TD*%
%TA.AperFunction,Conductor*%
%ADD30C,0.800000*%
%TD*%
%TA.AperFunction,Conductor*%
%ADD31C,0.600000*%
%TD*%
G04 APERTURE END LIST*
D10*
%TO.P,R2,1*%
%TO.N,GND*%
X192278000Y-139827000D03*
D11*
%TO.P,R2,2*%
%TO.N,Net-(U1-ADJ)*%
X204978000Y-139827000D03*
%TD*%
D12*
%TO.P,J5,1,Pin_1*%
%TO.N,Net-(J5-Pin_1)*%
X207318000Y-124460000D03*
D13*
%TO.P,J5,2,Pin_2*%
%TO.N,Net-(J5-Pin_2)*%
X210258000Y-124460000D03*
%TO.P,J5,3,Pin_3*%
%TO.N,/CANH*%
X207318000Y-127000000D03*
%TO.P,J5,4,Pin_4*%
%TO.N,/CANL*%
X210258000Y-127000000D03*
%TO.P,J5,5,Pin_5*%
%TO.N,Net-(J2-Pin_6)*%
X207318000Y-129540000D03*
%TO.P,J5,6,Pin_6*%
%TO.N,Net-(J2-Pin_5)*%
X210258000Y-129540000D03*
%TD*%
D14*
%TO.P,J1,1,Pin_1*%
%TO.N,/+5VCAN*%
X187833000Y-139319000D03*
D15*
%TO.P,J1,2,Pin_2*%
%TO.N,+5V*%
X185293000Y-139319000D03*
%TD*%
D16*
%TO.P,J2,1,Pin_1*%
%TO.N,/CANH*%
X216916000Y-108273500D03*
D17*
%TO.P,J2,2,Pin_2*%
%TO.N,/CANL*%
X219456000Y-108273500D03*
%TO.P,J2,3,Pin_3*%
%TO.N,/+12CAN*%
X221996000Y-108273500D03*
%TO.P,J2,4,Pin_4*%
%TO.N,GND*%
X224536000Y-108273500D03*
%TO.P,J2,5,Pin_5*%
%TO.N,Net-(J2-Pin_5)*%
X227076000Y-108273500D03*
%TO.P,J2,6,Pin_6*%
%TO.N,Net-(J2-Pin_6)*%
X229616000Y-108273500D03*
%TD*%
D18*
%TO.P,J4,1*%
%TO.N,/CANH*%
X223373000Y-131282500D03*
%TO.P,J4,2*%
%TO.N,/CANL*%
X220833000Y-130012500D03*
%TO.P,J4,3*%
%TO.N,/+12CAN*%
X223373000Y-128742500D03*
%TO.P,J4,4*%
X220833000Y-127472500D03*
%TO.P,J4,5*%
%TO.N,GND*%
X223373000Y-126202500D03*
%TO.P,J4,6*%
X220833000Y-124932500D03*
%TO.P,J4,7*%
%TO.N,Net-(J2-Pin_5)*%
X223373000Y-123662500D03*
%TO.P,J4,8*%
%TO.N,Net-(J2-Pin_6)*%
X220833000Y-122392500D03*
%TD*%
D19*
%TO.P,C2,1*%
%TO.N,/+12CAN*%
X205596000Y-151626500D03*
D20*
%TO.P,C2,2*%
%TO.N,GND*%
X187596000Y-151626500D03*
%TD*%
D12*
%TO.P,J3,1,Pin_1*%
%TO.N,/VIO*%
X185731000Y-133335000D03*
D21*
%TO.P,J3,2,Pin_2*%
%TO.N,+5V*%
X185731000Y-130795000D03*
%TO.P,J3,3,Pin_3*%
%TO.N,GND*%
X185731000Y-128255000D03*
%TO.P,J3,4,Pin_4*%
%TO.N,/STBY*%
X185731000Y-125715000D03*
%TO.P,J3,5,Pin_5*%
%TO.N,/TXD*%
X185731000Y-123175000D03*
%TO.P,J3,6,Pin_6*%
%TO.N,/RXD*%
X185731000Y-120635000D03*
%TD*%
D14*
%TO.P,U1,1,ADJ*%
%TO.N,Net-(U1-ADJ)*%
X210256000Y-139446000D03*
D15*
%TO.P,U1,2,VO*%
%TO.N,/+5VCAN*%
X210256000Y-141986000D03*
%TO.P,U1,3,VI*%
%TO.N,/+12CAN*%
X210256000Y-144526000D03*
%TD*%
D10*
%TO.P,R1,1*%
%TO.N,/+5VCAN*%
X192259000Y-135509000D03*
D11*
%TO.P,R1,2*%
%TO.N,Net-(U1-ADJ)*%
X204959000Y-135509000D03*
%TD*%
D19*
%TO.P,C1,1*%
%TO.N,/+5VCAN*%
X205596000Y-145530500D03*
D20*
%TO.P,C1,2*%
%TO.N,GND*%
X187596000Y-145530500D03*
%TD*%
D22*
%TO.P,U2,1,TXD*%
%TO.N,/TXD*%
X193304000Y-123200000D03*
D23*
%TO.P,U2,2,VSS*%
%TO.N,GND*%
X193304000Y-125740000D03*
%TO.P,U2,3,VDD*%
%TO.N,+5V*%
X193304000Y-128280000D03*
%TO.P,U2,4,RXD*%
%TO.N,/RXD*%
X193304000Y-130820000D03*
%TO.P,U2,5,VIO*%
%TO.N,/VIO*%
X200924000Y-130820000D03*
%TO.P,U2,6,CANL*%
%TO.N,/CANL*%
X200924000Y-128280000D03*
%TO.P,U2,7,CANH*%
%TO.N,/CANH*%
X200924000Y-125740000D03*
%TO.P,U2,8,STBY*%
%TO.N,/STBY*%
X200924000Y-123200000D03*
%TD*%
D16*
%TO.P,J6,1,Pin_1*%
%TO.N,/CANH*%
X216916000Y-145351500D03*
D17*
%TO.P,J6,2,Pin_2*%
%TO.N,/CANL*%
X219456000Y-145351500D03*
%TO.P,J6,3,Pin_3*%
%TO.N,/+12CAN*%
X221996000Y-145351500D03*
%TO.P,J6,4,Pin_4*%
%TO.N,GND*%
X224536000Y-145351500D03*
%TO.P,J6,5,Pin_5*%
%TO.N,Net-(J2-Pin_5)*%
X227076000Y-145351500D03*
%TO.P,J6,6,Pin_6*%
%TO.N,Net-(J2-Pin_6)*%
X229616000Y-145351500D03*
%TD*%
D24*
%TO.P,R4,1*%
%TO.N,/STBY*%
X196120000Y-118364000D03*
%TO.P,R4,2*%
%TO.N,GND*%
X198120000Y-118364000D03*
%TD*%
D25*
%TO.P,D1,1,A1*%
%TO.N,/+12CAN*%
X217932000Y-126652000D03*
%TO.P,D1,2,A2*%
%TO.N,GND*%
X217932000Y-121252000D03*
%TD*%
D26*
%TO.P,C3,1*%
%TO.N,+5V*%
X190627000Y-127762000D03*
%TO.P,C3,2*%
%TO.N,GND*%
X190627000Y-126037000D03*
%TD*%
%TO.P,C4,1*%
%TO.N,/VIO*%
X190246000Y-133297000D03*
%TO.P,C4,2*%
%TO.N,GND*%
X190246000Y-131572000D03*
%TD*%
D24*
%TO.P,R3,1*%
%TO.N,Net-(J5-Pin_1)*%
X207793000Y-121539000D03*
%TO.P,R3,2*%
%TO.N,Net-(J5-Pin_2)*%
X209793000Y-121539000D03*
%TD*%
D27*
%TO.N,/+12CAN*%
X222982500Y-139065000D03*
X233272500Y-139192000D03*
%TD*%
D28*
%TO.N,/+5VCAN*%
X210256000Y-141986000D02*
X209140500Y-141986000D01*
X191643000Y-135509000D02*
X187833000Y-139319000D01*
X209140500Y-141986000D02*
X205596000Y-145530500D01*
X205596000Y-145530500D02*
X204585500Y-145530500D01*
X194564000Y-135509000D02*
X192259000Y-135509000D01*
X204585500Y-145530500D02*
X194564000Y-135509000D01*
X192259000Y-135509000D02*
X191643000Y-135509000D01*
%TO.N,GND*%
X231075556Y-153526500D02*
X236663000Y-147939056D01*
D29*
X184790000Y-124465000D02*
X183896000Y-123571000D01*
X194221767Y-132070000D02*
X192268000Y-132070000D01*
D30*
X185691395Y-128255000D02*
X182992000Y-128255000D01*
X185219498Y-116332000D02*
X197739000Y-116332000D01*
D29*
X190754000Y-129540000D02*
X190246000Y-130048000D01*
D28*
X190627000Y-126037000D02*
X193007000Y-126037000D01*
X193007000Y-126037000D02*
X193304000Y-125740000D01*
X226373000Y-129202500D02*
X226373000Y-140403000D01*
D30*
X182337000Y-127600000D02*
X182337000Y-119214498D01*
D28*
X224536000Y-142240000D02*
X224536000Y-144960498D01*
X224536000Y-106934000D02*
X226314000Y-105156000D01*
X223373000Y-126202500D02*
X226373000Y-129202500D01*
D29*
X194818000Y-119253000D02*
X197358000Y-121793000D01*
X192268000Y-132070000D02*
X191770000Y-131572000D01*
X189339000Y-126037000D02*
X188775000Y-126037000D01*
D28*
X187596000Y-151626500D02*
X189496000Y-153526500D01*
X190627000Y-126037000D02*
X189339000Y-126037000D01*
D30*
X182992000Y-128255000D02*
X182337000Y-127600000D01*
D28*
X187596000Y-151626500D02*
X187689500Y-151720000D01*
X224536000Y-144960498D02*
X224340499Y-145155999D01*
X226314000Y-105156000D02*
X229078105Y-105156000D01*
X192278000Y-139827000D02*
X192278000Y-140848500D01*
D29*
X187203000Y-124465000D02*
X184790000Y-124465000D01*
D28*
X185731000Y-128255000D02*
X183276000Y-128255000D01*
D29*
X195072000Y-128679767D02*
X194211767Y-129540000D01*
D28*
X224536000Y-110282056D02*
X224536000Y-106934000D01*
X236663000Y-112740895D02*
X236663000Y-147939056D01*
D30*
X197739000Y-116332000D02*
X198120000Y-116713000D01*
D29*
X194211767Y-129540000D02*
X190754000Y-129540000D01*
X197358000Y-128933767D02*
X194221767Y-132070000D01*
D28*
X185731000Y-128255000D02*
X185691395Y-128255000D01*
X192278000Y-140848500D02*
X187596000Y-145530500D01*
X186170500Y-151626500D02*
X187596000Y-151626500D01*
D30*
X182337000Y-119214498D02*
X185219498Y-116332000D01*
D28*
X217932000Y-116886056D02*
X224536000Y-110282056D01*
X217932000Y-122031500D02*
X220833000Y-124932500D01*
X189496000Y-153526500D02*
X231075556Y-153526500D01*
D29*
X197358000Y-121793000D02*
X197358000Y-128933767D01*
D28*
X187689500Y-151720000D02*
X187689500Y-152510500D01*
X182499000Y-129032000D02*
X182499000Y-137922000D01*
X189339000Y-126037000D02*
X187121000Y-128255000D01*
D29*
X190246000Y-130048000D02*
X190246000Y-131572000D01*
X184895233Y-119253000D02*
X194818000Y-119253000D01*
D28*
X217932000Y-121252000D02*
X217932000Y-116886056D01*
X187121000Y-128255000D02*
X185731000Y-128255000D01*
X183276000Y-128255000D02*
X182499000Y-129032000D01*
X226373000Y-140403000D02*
X224536000Y-142240000D01*
D29*
X183896000Y-120252233D02*
X184895233Y-119253000D01*
X195072000Y-125984000D02*
X195072000Y-128679767D01*
D28*
X182510500Y-137910500D02*
X182499000Y-137922000D01*
X187596000Y-145530500D02*
X187596000Y-151626500D01*
X182499000Y-147955000D02*
X186170500Y-151626500D01*
X223373000Y-126202500D02*
X222103000Y-126202500D01*
D29*
X183896000Y-123571000D02*
X183896000Y-120252233D01*
D28*
X217932000Y-121252000D02*
X217932000Y-122031500D01*
X222103000Y-126202500D02*
X220833000Y-124932500D01*
D29*
X188775000Y-126037000D02*
X187203000Y-124465000D01*
X194828000Y-125740000D02*
X195072000Y-125984000D01*
D30*
X198120000Y-116713000D02*
X198120000Y-118364000D01*
D29*
X191770000Y-131572000D02*
X190246000Y-131572000D01*
X193304000Y-125740000D02*
X194828000Y-125740000D01*
D28*
X182499000Y-137922000D02*
X182499000Y-147955000D01*
X229078105Y-105156000D02*
X236663000Y-112740895D01*
%TO.N,/+12CAN*%
X217932000Y-126652000D02*
X216027000Y-124747000D01*
X225173000Y-130542500D02*
X225173000Y-131903820D01*
X220833000Y-127472500D02*
X218752500Y-127472500D01*
X205486000Y-151638000D02*
X210256000Y-146868000D01*
X216027000Y-117094000D02*
X221996000Y-111125000D01*
X233299000Y-139218500D02*
X233299000Y-144272000D01*
X211521000Y-149667000D02*
X209561500Y-151626500D01*
X227904000Y-149667000D02*
X211521000Y-149667000D01*
X223373000Y-128742500D02*
X225173000Y-130542500D01*
X218752500Y-127472500D02*
X217932000Y-126652000D01*
X220833000Y-127472500D02*
X222103000Y-127472500D01*
X210256000Y-146868000D02*
X210256000Y-144526000D01*
X221996000Y-111125000D02*
X221996000Y-108273500D01*
X209561500Y-151626500D02*
X205596000Y-151626500D01*
X223012000Y-139035500D02*
X222982500Y-139065000D01*
X221996000Y-142440502D02*
X221996000Y-145292000D01*
X222103000Y-127472500D02*
X223373000Y-128742500D01*
X233272500Y-139192000D02*
X233299000Y-139218500D01*
X225173000Y-131903820D02*
X223012000Y-134064820D01*
X222982500Y-141454002D02*
X221996000Y-142440502D01*
X216027000Y-124747000D02*
X216027000Y-117094000D01*
X223012000Y-134064820D02*
X223012000Y-139035500D01*
X233299000Y-144272000D02*
X227904000Y-149667000D01*
X222982500Y-139065000D02*
X222982500Y-141454002D01*
%TO.N,+5V*%
X185293000Y-136144000D02*
X185293000Y-139319000D01*
X183769000Y-131827000D02*
X183769000Y-134620000D01*
X184801000Y-130795000D02*
X183769000Y-131827000D01*
X192786000Y-127762000D02*
X193304000Y-128280000D01*
X185159500Y-136010500D02*
X185293000Y-136144000D01*
X187594000Y-130795000D02*
X190627000Y-127762000D01*
X185731000Y-130795000D02*
X187594000Y-130795000D01*
X185731000Y-130795000D02*
X184801000Y-130795000D01*
X190627000Y-127762000D02*
X192786000Y-127762000D01*
X183769000Y-134620000D02*
X185159500Y-136010500D01*
%TO.N,/VIO*%
X198409000Y-133335000D02*
X185731000Y-133335000D01*
X200924000Y-130820000D02*
X198409000Y-133335000D01*
D29*
%TO.N,/CANH*%
X212725000Y-127508000D02*
X212725000Y-110617000D01*
X215068500Y-108273500D02*
X216916000Y-108273500D01*
X218186000Y-146307551D02*
X218186000Y-145034000D01*
X220726000Y-142367000D02*
X220726000Y-146307551D01*
X212725000Y-110617000D02*
X215068500Y-108273500D01*
X208788000Y-128270000D02*
X211963000Y-128270000D01*
X199274000Y-128797767D02*
X199274000Y-127390000D01*
X219982051Y-147051500D02*
X218929949Y-147051500D01*
X216916000Y-109861000D02*
X216916000Y-108273500D01*
X200006233Y-129530000D02*
X199274000Y-128797767D01*
X211963000Y-128270000D02*
X212725000Y-127508000D01*
X204988000Y-129530000D02*
X200006233Y-129530000D01*
X207518000Y-127000000D02*
X208788000Y-128270000D01*
X207518000Y-127000000D02*
X204988000Y-129530000D01*
X218929949Y-147051500D02*
X218186000Y-146307551D01*
X214377000Y-112400000D02*
X216916000Y-109861000D01*
X218186000Y-145034000D02*
X214377000Y-141225000D01*
X223373000Y-131282500D02*
X221533000Y-133122500D01*
X221533000Y-141560000D02*
X220726000Y-142367000D01*
X220726000Y-146307551D02*
X219982051Y-147051500D01*
X199274000Y-127390000D02*
X200924000Y-125740000D01*
X214377000Y-141225000D02*
X214377000Y-112400000D01*
X221533000Y-133122500D02*
X221533000Y-141560000D01*
%TO.N,/CANL*%
X215077000Y-140782000D02*
X219456000Y-145161000D01*
X211958000Y-109860000D02*
X215392000Y-106426000D01*
X219456000Y-145161000D02*
X219456000Y-142113000D01*
X211958000Y-125100000D02*
X211958000Y-109860000D01*
X203474000Y-125730000D02*
X208788000Y-125730000D01*
X200924000Y-128280000D02*
X203474000Y-125730000D01*
X219456000Y-110221000D02*
X215077000Y-114600000D01*
X215077000Y-114600000D02*
X215077000Y-140782000D01*
X219456000Y-142113000D02*
X220833000Y-140736000D01*
X210058000Y-127000000D02*
X211958000Y-125100000D01*
X219456000Y-107843500D02*
X219456000Y-110221000D01*
X215392000Y-106426000D02*
X218038500Y-106426000D01*
X218038500Y-106426000D02*
X219456000Y-107843500D01*
X208788000Y-125730000D02*
X210058000Y-127000000D01*
X220833000Y-140736000D02*
X220833000Y-130012500D01*
%TO.N,Net-(J2-Pin_5)*%
X213677000Y-145082500D02*
X216549500Y-147955000D01*
X224663000Y-147955000D02*
X231122500Y-141495500D01*
X210058000Y-129540000D02*
X213677000Y-133159000D01*
X231823000Y-113020500D02*
X227076000Y-108273500D01*
X223373000Y-114320000D02*
X227076000Y-110617000D01*
X216549500Y-147955000D02*
X224663000Y-147955000D01*
X231122500Y-141495500D02*
X231122500Y-138301440D01*
X227076000Y-110617000D02*
X227076000Y-108273500D01*
X213677000Y-133159000D02*
X213677000Y-145082500D01*
X223373000Y-123662500D02*
X223373000Y-114320000D01*
X231122500Y-138301440D02*
X231823000Y-137600940D01*
X231823000Y-137600940D02*
X231823000Y-113020500D01*
%TO.N,Net-(J2-Pin_6)*%
X231822500Y-138591390D02*
X231822500Y-142831051D01*
X227602051Y-106573500D02*
X232523000Y-111494449D01*
X225806000Y-107317449D02*
X226549949Y-106573500D01*
X225936551Y-148717000D02*
X216321550Y-148717000D01*
X212977000Y-134999000D02*
X207518000Y-129540000D01*
X232523000Y-111494449D02*
X232523000Y-137890890D01*
X220833000Y-122392500D02*
X220833000Y-115844000D01*
X220833000Y-115844000D02*
X225806000Y-110871000D01*
X232523000Y-137890890D02*
X231822500Y-138591390D01*
X216321550Y-148717000D02*
X212977000Y-145372449D01*
X226549949Y-106573500D02*
X227602051Y-106573500D01*
X212977000Y-145372449D02*
X212977000Y-134999000D01*
X225806000Y-110871000D02*
X225806000Y-107317449D01*
X231822500Y-142831051D02*
X225936551Y-148717000D01*
%TO.N,/TXD*%
X193279000Y-123175000D02*
X193304000Y-123200000D01*
X185731000Y-123175000D02*
X193279000Y-123175000D01*
%TO.N,/RXD*%
X195961000Y-129169000D02*
X194310000Y-130820000D01*
X194310000Y-130820000D02*
X193304000Y-130820000D01*
X185731000Y-120635000D02*
X194549000Y-120635000D01*
X194549000Y-120635000D02*
X195961000Y-122047000D01*
X195961000Y-122047000D02*
X195961000Y-129169000D01*
D28*
%TO.N,Net-(U1-ADJ)*%
X205359000Y-139446000D02*
X204978000Y-139827000D01*
X210256000Y-139446000D02*
X205359000Y-139446000D01*
X204959000Y-135509000D02*
X204959000Y-139808000D01*
X204959000Y-139808000D02*
X204978000Y-139827000D01*
D29*
%TO.N,/STBY*%
X185731000Y-125715000D02*
X184643000Y-125715000D01*
X195961000Y-118237000D02*
X200924000Y-123200000D01*
X184658000Y-118237000D02*
X195961000Y-118237000D01*
X184643000Y-125715000D02*
X183187000Y-124259000D01*
X183187000Y-124259000D02*
X183187000Y-119708000D01*
X183187000Y-119708000D02*
X184658000Y-118237000D01*
D31*
%TO.N,Net-(J5-Pin_1)*%
X207518000Y-124460000D02*
X207518000Y-121814000D01*
%TO.N,Net-(J5-Pin_2)*%
X210058000Y-124460000D02*
X210058000Y-121804000D01*
%TD*%
%TA.AperFunction,Conductor*%
%TO.N,GND*%
G36*
X224226465Y-145685099D02*
G01*
X224298669Y-145734327D01*
X224289712Y-145732546D01*
X224208930Y-145678570D01*
X224154954Y-145597788D01*
X224154328Y-145594641D01*
X224226465Y-145685099D01*
G37*
%TD.AperFunction*%
%TA.AperFunction,Conductor*%
G36*
X224782288Y-145732546D02*
G01*
X224781615Y-145732679D01*
X224783306Y-145731865D01*
X224782288Y-145732546D01*
G37*
%TD.AperFunction*%
%TA.AperFunction,Conductor*%
G36*
X224917046Y-145597788D02*
G01*
X224863070Y-145678570D01*
X224798860Y-145721473D01*
X224891798Y-145635240D01*
X224918951Y-145588208D01*
X224917046Y-145597788D01*
G37*
%TD.AperFunction*%
%TA.AperFunction,Conductor*%
G36*
X227920787Y-109852907D02*
G01*
X228001569Y-109906883D01*
X231249570Y-113154884D01*
X231303546Y-113235666D01*
X231322500Y-113330954D01*
X231322500Y-119513570D01*
X231303546Y-119608858D01*
X231249570Y-119689640D01*
X231168788Y-119743616D01*
X231073500Y-119762570D01*
X230978212Y-119743616D01*
X230907338Y-119699019D01*
X230857003Y-119653919D01*
X230857000Y-119653916D01*
X230631096Y-119504459D01*
X230631090Y-119504456D01*
X230385824Y-119389480D01*
X230126431Y-119311440D01*
X230126427Y-119311439D01*
X230126426Y-119311439D01*
X230064715Y-119302357D01*
X229858439Y-119272000D01*
X229655369Y-119272000D01*
X229452844Y-119286823D01*
X229452840Y-119286823D01*
X229452837Y-119286824D01*
X229188442Y-119345721D01*
X228935436Y-119442488D01*
X228699226Y-119575055D01*
X228484826Y-119740608D01*
X228296811Y-119935622D01*
X228139204Y-120155916D01*
X228139199Y-120155924D01*
X228015344Y-120396823D01*
X228015343Y-120396825D01*
X227927882Y-120653190D01*
X227878681Y-120919562D01*
X227878680Y-120919573D01*
X227868788Y-121190265D01*
X227868787Y-121190268D01*
X227893765Y-121417268D01*
X227898414Y-121459518D01*
X227966928Y-121721588D01*
X228059537Y-121939516D01*
X228072869Y-121970887D01*
X228072872Y-121970894D01*
X228213976Y-122202101D01*
X228213978Y-122202105D01*
X228213982Y-122202110D01*
X228213987Y-122202116D01*
X228213990Y-122202120D01*
X228297327Y-122302260D01*
X228387255Y-122410320D01*
X228576703Y-122580066D01*
X228588996Y-122591080D01*
X228588999Y-122591083D01*
X228814903Y-122740540D01*
X228814906Y-122740541D01*
X228814910Y-122740544D01*
X229060176Y-122855520D01*
X229319569Y-122933560D01*
X229587561Y-122973000D01*
X229587567Y-122973000D01*
X229790630Y-122973000D01*
X229790631Y-122973000D01*
X229993156Y-122958177D01*
X230257553Y-122899280D01*
X230510558Y-122802514D01*
X230746777Y-122669941D01*
X230921321Y-122535163D01*
X231008322Y-122491930D01*
X231105249Y-122485280D01*
X231197343Y-122516230D01*
X231270583Y-122580066D01*
X231313818Y-122667070D01*
X231322500Y-122732248D01*
X231322500Y-130943570D01*
X231303546Y-131038858D01*
X231249570Y-131119640D01*
X231168788Y-131173616D01*
X231073500Y-131192570D01*
X230978212Y-131173616D01*
X230907338Y-131129019D01*
X230857003Y-131083919D01*
X230857000Y-131083916D01*
X230631096Y-130934459D01*
X230631090Y-130934456D01*
X230385824Y-130819480D01*
X230126431Y-130741440D01*
X230126427Y-130741439D01*
X230126426Y-130741439D01*
X230064715Y-130732357D01*
X229858439Y-130702000D01*
X229655369Y-130702000D01*
X229452844Y-130716823D01*
X229452840Y-130716823D01*
X229452837Y-130716824D01*
X229188442Y-130775721D01*
X228935436Y-130872488D01*
X228699226Y-131005055D01*
X228484826Y-131170608D01*
X228296811Y-131365622D01*
X228139204Y-131585916D01*
X228139199Y-131585924D01*
X228015344Y-131826823D01*
X228015343Y-131826825D01*
X227927882Y-132083190D01*
X227878681Y-132349562D01*
X227878680Y-132349573D01*
X227868788Y-132620265D01*
X227868787Y-132620268D01*
X227898413Y-132889512D01*
X227898414Y-132889518D01*
X227966928Y-133151587D01*
X227966928Y-133151588D01*
X228072869Y-133400887D01*
X228072872Y-133400894D01*
X228213976Y-133632101D01*
X228213978Y-133632105D01*
X228213982Y-133632110D01*
X228213987Y-133632116D01*
X228213990Y-133632120D01*
X228301906Y-133737762D01*
X228387255Y-133840320D01*
X228576703Y-134010066D01*
X228588996Y-134021080D01*
X228588999Y-134021083D01*
X228814903Y-134170540D01*
X228814906Y-134170541D01*
X228814910Y-134170544D01*
X229060176Y-134285520D01*
X229319569Y-134363560D01*
X229587561Y-134403000D01*
X229587567Y-134403000D01*
X229790630Y-134403000D01*
X229790631Y-134403000D01*
X229993156Y-134388177D01*
X230257553Y-134329280D01*
X230510558Y-134232514D01*
X230738736Y-134104454D01*
X230746772Y-134099944D01*
X230746772Y-134099943D01*
X230746777Y-134099941D01*
X230921321Y-133965163D01*
X231008322Y-133921930D01*
X231105249Y-133915280D01*
X231197343Y-133946230D01*
X231270583Y-134010066D01*
X231313818Y-134097070D01*
X231322500Y-134162248D01*
X231322500Y-137290486D01*
X231303546Y-137385774D01*
X231249570Y-137466556D01*
X231249569Y-137466556D01*
X230825567Y-137890557D01*
X230804641Y-137907421D01*
X230804828Y-137907637D01*
X230791370Y-137919298D01*
X230758869Y-137956806D01*
X230752823Y-137963300D01*
X230743282Y-137972843D01*
X230743274Y-137972852D01*
X230735195Y-137983644D01*
X230729625Y-137990556D01*
X230697125Y-138028063D01*
X230687495Y-138043048D01*
X230687256Y-138042894D01*
X230686990Y-138043343D01*
X230687238Y-138043479D01*
X230678704Y-138059108D01*
X230661353Y-138105626D01*
X230657953Y-138113834D01*
X230637334Y-138158984D01*
X230632317Y-138176070D01*
X230632046Y-138175990D01*
X230631917Y-138176499D01*
X230632193Y-138176560D01*
X230628408Y-138193958D01*
X230624867Y-138243458D01*
X230623919Y-138252286D01*
X230622000Y-138265637D01*
X230622000Y-138279105D01*
X230621683Y-138287989D01*
X230618141Y-138337511D01*
X230619412Y-138355278D01*
X230619126Y-138355298D01*
X230622000Y-138382022D01*
X230622000Y-141185045D01*
X230603046Y-141280333D01*
X230549070Y-141361115D01*
X227940700Y-143969484D01*
X227859918Y-144023460D01*
X227764630Y-144042414D01*
X227669342Y-144023460D01*
X227647252Y-144013012D01*
X227487651Y-143927703D01*
X227487644Y-143927700D01*
X227285854Y-143866488D01*
X227076001Y-143845820D01*
X227075999Y-143845820D01*
X226866145Y-143866488D01*
X226664355Y-143927700D01*
X226664348Y-143927703D01*
X226478383Y-144027105D01*
X226315385Y-144160872D01*
X226315372Y-144160885D01*
X226181606Y-144323881D01*
X226166536Y-144352076D01*
X226104901Y-144427178D01*
X226019218Y-144472976D01*
X225922530Y-144482498D01*
X225829559Y-144454295D01*
X225754457Y-144392660D01*
X225721267Y-144339929D01*
X225683518Y-144258977D01*
X225551041Y-144069780D01*
X225387719Y-143906458D01*
X225198522Y-143773981D01*
X224989189Y-143676367D01*
X224935999Y-143662115D01*
X224935999Y-145138958D01*
X224930113Y-145123959D01*
X224845535Y-145017901D01*
X224733453Y-144941484D01*
X224603827Y-144901500D01*
X224502276Y-144901500D01*
X224401862Y-144916635D01*
X224279643Y-144975493D01*
X224180202Y-145067760D01*
X224136000Y-145144320D01*
X224136000Y-143662115D01*
X224082810Y-143676367D01*
X223873477Y-143773981D01*
X223684280Y-143906458D01*
X223520958Y-144069780D01*
X223388480Y-144258977D01*
X223350731Y-144339931D01*
X223293282Y-144418280D01*
X223210222Y-144468681D01*
X223114198Y-144483460D01*
X223019827Y-144460367D01*
X222941478Y-144402918D01*
X222905464Y-144352076D01*
X222890395Y-144323884D01*
X222803018Y-144217414D01*
X222757221Y-144131732D01*
X222746499Y-144059458D01*
X222746499Y-142854507D01*
X222765453Y-142759220D01*
X222819426Y-142678441D01*
X223461708Y-142036160D01*
X223489075Y-142012512D01*
X223501030Y-142003612D01*
X223532887Y-141965644D01*
X223540180Y-141957687D01*
X223544091Y-141953778D01*
X223563336Y-141929436D01*
X223565559Y-141926707D01*
X223613802Y-141869216D01*
X223613805Y-141869211D01*
X223619832Y-141860047D01*
X223625606Y-141850684D01*
X223625611Y-141850679D01*
X223657324Y-141782667D01*
X223658851Y-141779512D01*
X223692540Y-141712435D01*
X223692541Y-141712428D01*
X223696310Y-141702076D01*
X223699757Y-141691676D01*
X223703130Y-141675333D01*
X223714934Y-141618165D01*
X223715693Y-141614739D01*
X223733000Y-141541723D01*
X223733000Y-141541711D01*
X223734273Y-141530829D01*
X223735231Y-141519868D01*
X223735234Y-141519857D01*
X223733580Y-141463017D01*
X223733053Y-141444881D01*
X223733000Y-141441260D01*
X223733000Y-140186114D01*
X223751954Y-140090826D01*
X223805927Y-140010047D01*
X223944098Y-139871877D01*
X224069602Y-139692639D01*
X224162075Y-139494330D01*
X224218707Y-139282977D01*
X224237777Y-139065000D01*
X224218707Y-138847023D01*
X224162075Y-138635670D01*
X224069602Y-138437362D01*
X223944098Y-138258123D01*
X223835427Y-138149452D01*
X223781454Y-138068674D01*
X223762500Y-137973386D01*
X223762500Y-134478826D01*
X223781454Y-134383538D01*
X223835428Y-134302758D01*
X225652205Y-132485980D01*
X225679575Y-132462329D01*
X225691530Y-132453430D01*
X225723377Y-132415474D01*
X225730681Y-132407504D01*
X225734591Y-132403596D01*
X225753836Y-132379254D01*
X225756059Y-132376525D01*
X225804302Y-132319034D01*
X225804305Y-132319029D01*
X225810338Y-132309856D01*
X225816105Y-132300507D01*
X225816107Y-132300501D01*
X225816111Y-132300497D01*
X225847821Y-132232491D01*
X225849361Y-132229310D01*
X225883040Y-132162253D01*
X225883040Y-132162250D01*
X225886807Y-132151903D01*
X225890257Y-132141492D01*
X225896596Y-132110788D01*
X225905436Y-132067972D01*
X225906186Y-132064589D01*
X225923500Y-131991541D01*
X225923499Y-131991534D01*
X225924774Y-131980632D01*
X225925734Y-131969673D01*
X225923553Y-131894699D01*
X225923500Y-131891078D01*
X225923500Y-130615311D01*
X225926129Y-130579221D01*
X225928289Y-130564477D01*
X225923973Y-130515152D01*
X225923500Y-130504305D01*
X225923500Y-130498791D01*
X225919903Y-130468018D01*
X225919534Y-130464414D01*
X225912998Y-130389702D01*
X225912995Y-130389693D01*
X225910772Y-130378923D01*
X225908242Y-130368248D01*
X225886048Y-130307270D01*
X225882567Y-130297706D01*
X225881430Y-130294436D01*
X225857814Y-130223165D01*
X225857811Y-130223160D01*
X225853164Y-130213193D01*
X225848238Y-130203385D01*
X225848237Y-130203383D01*
X225807016Y-130140710D01*
X225805107Y-130137714D01*
X225765711Y-130073844D01*
X225765707Y-130073840D01*
X225758889Y-130065216D01*
X225751831Y-130056805D01*
X225717156Y-130024090D01*
X225697282Y-130005339D01*
X225694704Y-130002836D01*
X224785478Y-129093610D01*
X224731501Y-129012828D01*
X224712547Y-128917540D01*
X224713745Y-128893149D01*
X224728583Y-128742500D01*
X224708300Y-128536566D01*
X224648232Y-128338546D01*
X224550685Y-128156050D01*
X224550683Y-128156047D01*
X224419416Y-127996096D01*
X224419403Y-127996083D01*
X224259450Y-127864815D01*
X224197716Y-127831817D01*
X224122614Y-127770183D01*
X224076816Y-127684499D01*
X224067293Y-127587812D01*
X224095496Y-127494841D01*
X224157130Y-127419739D01*
X224209863Y-127386548D01*
X224325480Y-127332635D01*
X224325482Y-127332633D01*
X224511812Y-127202164D01*
X224672664Y-127041312D01*
X224803133Y-126854983D01*
X224899266Y-126648824D01*
X224911679Y-126602500D01*
X223404481Y-126602500D01*
X223498148Y-126587665D01*
X223611045Y-126530141D01*
X223700641Y-126440545D01*
X223758165Y-126327648D01*
X223777986Y-126202500D01*
X223758165Y-126077352D01*
X223700641Y-125964455D01*
X223611045Y-125874859D01*
X223498148Y-125817335D01*
X223404481Y-125802500D01*
X224911680Y-125802500D01*
X224911679Y-125802499D01*
X224899266Y-125756175D01*
X224803133Y-125550016D01*
X224672664Y-125363687D01*
X224511812Y-125202835D01*
X224325482Y-125072366D01*
X224325479Y-125072364D01*
X224209861Y-125018450D01*
X224131511Y-124961001D01*
X224081110Y-124877942D01*
X224066331Y-124781918D01*
X224089424Y-124687547D01*
X224146873Y-124609197D01*
X224197713Y-124573183D01*
X224259450Y-124540185D01*
X224345694Y-124469407D01*
X224419403Y-124408916D01*
X224419404Y-124408914D01*
X224419410Y-124408910D01*
X224425527Y-124401457D01*
X224527238Y-124277520D01*
X224550685Y-124248950D01*
X224648232Y-124066454D01*
X224708300Y-123868434D01*
X224728583Y-123662500D01*
X224708300Y-123456566D01*
X224648232Y-123258546D01*
X224639412Y-123242046D01*
X224590037Y-123149672D01*
X224550685Y-123076050D01*
X224550683Y-123076047D01*
X224419416Y-122916096D01*
X224419403Y-122916083D01*
X224259452Y-122784816D01*
X224203921Y-122755134D01*
X224076954Y-122687268D01*
X224050214Y-122679156D01*
X223964534Y-122633358D01*
X223902901Y-122558256D01*
X223874699Y-122465284D01*
X223873500Y-122440880D01*
X223873500Y-114630453D01*
X223892454Y-114535165D01*
X223946428Y-114454385D01*
X227372930Y-111027882D01*
X227393855Y-111011021D01*
X227393668Y-111010805D01*
X227407121Y-110999147D01*
X227407128Y-110999143D01*
X227419342Y-110985045D01*
X227439630Y-110961633D01*
X227445693Y-110955121D01*
X227449781Y-110951032D01*
X227455221Y-110945593D01*
X227463309Y-110934787D01*
X227468863Y-110927894D01*
X227501377Y-110890373D01*
X227501377Y-110890371D01*
X227501380Y-110890369D01*
X227511005Y-110875392D01*
X227511247Y-110875548D01*
X227511513Y-110875101D01*
X227511260Y-110874963D01*
X227519792Y-110859335D01*
X227519796Y-110859331D01*
X227537150Y-110812800D01*
X227540537Y-110804622D01*
X227561165Y-110759457D01*
X227561166Y-110759447D01*
X227566182Y-110742367D01*
X227566458Y-110742448D01*
X227566585Y-110741949D01*
X227566305Y-110741888D01*
X227570090Y-110724487D01*
X227570090Y-110724485D01*
X227570091Y-110724483D01*
X227572372Y-110692574D01*
X227573632Y-110674976D01*
X227574580Y-110666148D01*
X227576500Y-110652799D01*
X227576499Y-110639323D01*
X227576815Y-110630461D01*
X227580359Y-110580927D01*
X227580357Y-110580922D01*
X227579089Y-110563159D01*
X227579373Y-110563138D01*
X227576500Y-110536425D01*
X227576500Y-110082947D01*
X227595453Y-109987665D01*
X227649429Y-109906883D01*
X227730211Y-109852907D01*
X227825499Y-109833953D01*
X227920787Y-109852907D01*
G37*
%TD.AperFunction*%
%TA.AperFunction,Conductor*%
G36*
X195130703Y-118756454D02*
G01*
X195211485Y-118810430D01*
X195265461Y-118891212D01*
X195270899Y-118908052D01*
X195305940Y-119002001D01*
X195326204Y-119056331D01*
X195412454Y-119171546D01*
X195527669Y-119257796D01*
X195662517Y-119308091D01*
X195722127Y-119314500D01*
X196227545Y-119314499D01*
X196322833Y-119333453D01*
X196403614Y-119387429D01*
X196403615Y-119387429D01*
X199509957Y-122493771D01*
X199563933Y-122574553D01*
X199582887Y-122669841D01*
X199563933Y-122765129D01*
X199553487Y-122787215D01*
X199548772Y-122796036D01*
X199548769Y-122796043D01*
X199488700Y-122994065D01*
X199468417Y-123200000D01*
X199488700Y-123405934D01*
X199548768Y-123603955D01*
X199646316Y-123786452D01*
X199777583Y-123946403D01*
X199777596Y-123946416D01*
X199937547Y-124077683D01*
X199937548Y-124077683D01*
X199937550Y-124077685D01*
X200120044Y-124175231D01*
X200120045Y-124175231D01*
X200120046Y-124175232D01*
X200137749Y-124180602D01*
X200306270Y-124231722D01*
X200391953Y-124277520D01*
X200453587Y-124352622D01*
X200481790Y-124445594D01*
X200472267Y-124542281D01*
X200426469Y-124627964D01*
X200351367Y-124689598D01*
X200306270Y-124708278D01*
X200120044Y-124764768D01*
X199937547Y-124862316D01*
X199777596Y-124993583D01*
X199777583Y-124993596D01*
X199646316Y-125153547D01*
X199548768Y-125336044D01*
X199488700Y-125534065D01*
X199488700Y-125534066D01*
X199468417Y-125740000D01*
X199488700Y-125945934D01*
X199548312Y-126142452D01*
X199548769Y-126143956D01*
X199548772Y-126143963D01*
X199553487Y-126152785D01*
X199581688Y-126245757D01*
X199572164Y-126342444D01*
X199526364Y-126428126D01*
X199509956Y-126446229D01*
X198977067Y-126979117D01*
X198956141Y-126995981D01*
X198956328Y-126996197D01*
X198942870Y-127007858D01*
X198910369Y-127045366D01*
X198904323Y-127051860D01*
X198894782Y-127061403D01*
X198894774Y-127061412D01*
X198886695Y-127072204D01*
X198881125Y-127079116D01*
X198848625Y-127116623D01*
X198838995Y-127131608D01*
X198838756Y-127131454D01*
X198838490Y-127131903D01*
X198838738Y-127132039D01*
X198830204Y-127147668D01*
X198812853Y-127194186D01*
X198809453Y-127202394D01*
X198788834Y-127247544D01*
X198783817Y-127264630D01*
X198783546Y-127264550D01*
X198783417Y-127265059D01*
X198783693Y-127265120D01*
X198779908Y-127282518D01*
X198776367Y-127332018D01*
X198775419Y-127340846D01*
X198773500Y-127354197D01*
X198773500Y-127367665D01*
X198773183Y-127376549D01*
X198769641Y-127426071D01*
X198770912Y-127443838D01*
X198770626Y-127443858D01*
X198773500Y-127470582D01*
X198773500Y-128717185D01*
X198770626Y-128743911D01*
X198770912Y-128743932D01*
X198769641Y-128761698D01*
X198770470Y-128773292D01*
X198773183Y-128811227D01*
X198773500Y-128820087D01*
X198773500Y-128833566D01*
X198775417Y-128846901D01*
X198776367Y-128855739D01*
X198779908Y-128905248D01*
X198783693Y-128922646D01*
X198783415Y-128922706D01*
X198783546Y-128923218D01*
X198783818Y-128923139D01*
X198788835Y-128940225D01*
X198809453Y-128985371D01*
X198812854Y-128993582D01*
X198830204Y-129040098D01*
X198830206Y-129040100D01*
X198838739Y-129055728D01*
X198838488Y-129055864D01*
X198838753Y-129056312D01*
X198838994Y-129056158D01*
X198848621Y-129071138D01*
X198881123Y-129108648D01*
X198886698Y-129115566D01*
X198894774Y-129126354D01*
X198894782Y-129126363D01*
X198904310Y-129135891D01*
X198910365Y-129142395D01*
X198923612Y-129157683D01*
X198942871Y-129179909D01*
X198956330Y-129191571D01*
X198956142Y-129191787D01*
X198977070Y-129208651D01*
X199595348Y-129826929D01*
X199612213Y-129847857D01*
X199612429Y-129847671D01*
X199624088Y-129861126D01*
X199632485Y-129868402D01*
X199692088Y-129945127D01*
X199717792Y-130038820D01*
X199705686Y-130135217D01*
X199661911Y-130214545D01*
X199646315Y-130233548D01*
X199548768Y-130416044D01*
X199488700Y-130614065D01*
X199488700Y-130614066D01*
X199468417Y-130820000D01*
X199482028Y-130958198D01*
X199488700Y-131025933D01*
X199490608Y-131035527D01*
X199490605Y-131132682D01*
X199453424Y-131222441D01*
X199422461Y-131260168D01*
X198171062Y-132511569D01*
X198090280Y-132565546D01*
X197994992Y-132584500D01*
X191356675Y-132584500D01*
X191261387Y-132565546D01*
X191180605Y-132511570D01*
X191126629Y-132430788D01*
X191107675Y-132335500D01*
X191126629Y-132240212D01*
X191144747Y-132204781D01*
X191156453Y-132185801D01*
X191210680Y-132022149D01*
X191210682Y-132022141D01*
X191215805Y-131972000D01*
X189276196Y-131972000D01*
X189281319Y-132022152D01*
X189335547Y-132185802D01*
X189347253Y-132204781D01*
X189381145Y-132295833D01*
X189377613Y-132392924D01*
X189337195Y-132481272D01*
X189266044Y-132547428D01*
X189174992Y-132581320D01*
X189135325Y-132584500D01*
X187452616Y-132584500D01*
X187357328Y-132565546D01*
X187276546Y-132511570D01*
X187222572Y-132430792D01*
X187216967Y-132417262D01*
X187215786Y-132415495D01*
X187171736Y-132349567D01*
X187161602Y-132334400D01*
X187161599Y-132334397D01*
X187079575Y-132279592D01*
X187078740Y-132279034D01*
X187078739Y-132279033D01*
X187005676Y-132264500D01*
X187005674Y-132264500D01*
X186634191Y-132264500D01*
X186538903Y-132245546D01*
X186458121Y-132191570D01*
X186404145Y-132110788D01*
X186385191Y-132015500D01*
X186404145Y-131920212D01*
X186458121Y-131839430D01*
X186538903Y-131785454D01*
X186561905Y-131777223D01*
X186584954Y-131770232D01*
X186767450Y-131672685D01*
X186791952Y-131652576D01*
X186853557Y-131602020D01*
X186939240Y-131556222D01*
X187011520Y-131545500D01*
X187521188Y-131545500D01*
X187557276Y-131548128D01*
X187572023Y-131550289D01*
X187604308Y-131547464D01*
X187621353Y-131545974D01*
X187632207Y-131545500D01*
X187637710Y-131545500D01*
X187642789Y-131544906D01*
X187668505Y-131541899D01*
X187672031Y-131541539D01*
X187746797Y-131534999D01*
X187746798Y-131534998D01*
X187757537Y-131532781D01*
X187768253Y-131530241D01*
X187768255Y-131530241D01*
X187838747Y-131504583D01*
X187842123Y-131503410D01*
X187913334Y-131479814D01*
X187913339Y-131479810D01*
X187923305Y-131475164D01*
X187933113Y-131470238D01*
X187933117Y-131470237D01*
X187995824Y-131428993D01*
X187998758Y-131427123D01*
X188062656Y-131387712D01*
X188062665Y-131387702D01*
X188071261Y-131380906D01*
X188079689Y-131373834D01*
X188079696Y-131373830D01*
X188131176Y-131319263D01*
X188133649Y-131316718D01*
X188278367Y-131172000D01*
X189276194Y-131172000D01*
X189845999Y-131172000D01*
X189846000Y-131171999D01*
X189846000Y-130548910D01*
X190646000Y-130548910D01*
X190646000Y-131171999D01*
X190646001Y-131172000D01*
X191215803Y-131172000D01*
X191210680Y-131121847D01*
X191156453Y-130958197D01*
X191065946Y-130811464D01*
X190944035Y-130689553D01*
X190797302Y-130599047D01*
X190797304Y-130599047D01*
X190646000Y-130548910D01*
X189846000Y-130548910D01*
X189694696Y-130599047D01*
X189547964Y-130689553D01*
X189426053Y-130811464D01*
X189335546Y-130958198D01*
X189281319Y-131121850D01*
X189281317Y-131121858D01*
X189276194Y-131171999D01*
X189276194Y-131172000D01*
X188278367Y-131172000D01*
X189508052Y-129942315D01*
X190837228Y-128613139D01*
X190918008Y-128559165D01*
X190956041Y-128546883D01*
X190969287Y-128543752D01*
X190969299Y-128543751D01*
X191010993Y-128528199D01*
X191098010Y-128512500D01*
X191692087Y-128512500D01*
X191787375Y-128531454D01*
X191868157Y-128585430D01*
X191922133Y-128666212D01*
X191926665Y-128678877D01*
X191928768Y-128683955D01*
X192026316Y-128866452D01*
X192157583Y-129026403D01*
X192157596Y-129026416D01*
X192317547Y-129157683D01*
X192317548Y-129157683D01*
X192317550Y-129157685D01*
X192500046Y-129255232D01*
X192686275Y-129311723D01*
X192771952Y-129357519D01*
X192833587Y-129432620D01*
X192861790Y-129525591D01*
X192852268Y-129622279D01*
X192806469Y-129707962D01*
X192731368Y-129769597D01*
X192686271Y-129788277D01*
X192500043Y-129844769D01*
X192317547Y-129942316D01*
X192157596Y-130073583D01*
X192157583Y-130073596D01*
X192026316Y-130233547D01*
X191928768Y-130416044D01*
X191868700Y-130614065D01*
X191848417Y-130820000D01*
X191868700Y-131025934D01*
X191928768Y-131223955D01*
X192026316Y-131406452D01*
X192157583Y-131566403D01*
X192157596Y-131566416D01*
X192317547Y-131697683D01*
X192317548Y-131697683D01*
X192317550Y-131697685D01*
X192500046Y-131795232D01*
X192604189Y-131826823D01*
X192698065Y-131855300D01*
X192713265Y-131856796D01*
X192852392Y-131870500D01*
X192852395Y-131870500D01*
X193755605Y-131870500D01*
X193755608Y-131870500D01*
X193909934Y-131855300D01*
X194107954Y-131795232D01*
X194290450Y-131697685D01*
X194422479Y-131589332D01*
X194450403Y-131566416D01*
X194450404Y-131566414D01*
X194450410Y-131566410D01*
X194470522Y-131541904D01*
X194562093Y-131430323D01*
X194581685Y-131406450D01*
X194679232Y-131223954D01*
X194689590Y-131189805D01*
X194735385Y-131104124D01*
X194751789Y-131086023D01*
X196257930Y-129579882D01*
X196278855Y-129563021D01*
X196278668Y-129562805D01*
X196292121Y-129551147D01*
X196292128Y-129551143D01*
X196314268Y-129525591D01*
X196324630Y-129513633D01*
X196330693Y-129507121D01*
X196334781Y-129503032D01*
X196340221Y-129497593D01*
X196348309Y-129486787D01*
X196353863Y-129479894D01*
X196386377Y-129442373D01*
X196386377Y-129442371D01*
X196386380Y-129442369D01*
X196396005Y-129427392D01*
X196396247Y-129427548D01*
X196396513Y-129427101D01*
X196396260Y-129426963D01*
X196404792Y-129411335D01*
X196404796Y-129411331D01*
X196422150Y-129364800D01*
X196425537Y-129356622D01*
X196446165Y-129311457D01*
X196446166Y-129311447D01*
X196451182Y-129294367D01*
X196451458Y-129294448D01*
X196451585Y-129293949D01*
X196451305Y-129293888D01*
X196455090Y-129276486D01*
X196455090Y-129276485D01*
X196455091Y-129276483D01*
X196458632Y-129226977D01*
X196459583Y-129218133D01*
X196461499Y-129204809D01*
X196461500Y-129204797D01*
X196461500Y-129191320D01*
X196461816Y-129182460D01*
X196465359Y-129132927D01*
X196465357Y-129132918D01*
X196464088Y-129115165D01*
X196464373Y-129115144D01*
X196461500Y-129088418D01*
X196461500Y-122127582D01*
X196464373Y-122100858D01*
X196464088Y-122100838D01*
X196465357Y-122083080D01*
X196465359Y-122083073D01*
X196462055Y-122036873D01*
X196461817Y-122033549D01*
X196461500Y-122024665D01*
X196461500Y-122011203D01*
X196461500Y-122011201D01*
X196459581Y-121997860D01*
X196458632Y-121989027D01*
X196457335Y-121970894D01*
X196455091Y-121939517D01*
X196455089Y-121939511D01*
X196451305Y-121922114D01*
X196451585Y-121922052D01*
X196451457Y-121921548D01*
X196451182Y-121921629D01*
X196446164Y-121904540D01*
X196425541Y-121859383D01*
X196422138Y-121851167D01*
X196404795Y-121804667D01*
X196396261Y-121789037D01*
X196396511Y-121788900D01*
X196396245Y-121788453D01*
X196396005Y-121788608D01*
X196386378Y-121773628D01*
X196353880Y-121736123D01*
X196348301Y-121729200D01*
X196340223Y-121718410D01*
X196340222Y-121718409D01*
X196340221Y-121718407D01*
X196330689Y-121708875D01*
X196324646Y-121702386D01*
X196305478Y-121680264D01*
X196292128Y-121664856D01*
X196278671Y-121653196D01*
X196278857Y-121652980D01*
X196257929Y-121636115D01*
X194959884Y-120338070D01*
X194943020Y-120317142D01*
X194942804Y-120317330D01*
X194931142Y-120303871D01*
X194893632Y-120271369D01*
X194887124Y-120265310D01*
X194877596Y-120255782D01*
X194877587Y-120255774D01*
X194866799Y-120247698D01*
X194859881Y-120242123D01*
X194822371Y-120209621D01*
X194807391Y-120199994D01*
X194807545Y-120199753D01*
X194807097Y-120199488D01*
X194806961Y-120199739D01*
X194791333Y-120191206D01*
X194791331Y-120191204D01*
X194744815Y-120173854D01*
X194736604Y-120170453D01*
X194691458Y-120149835D01*
X194674372Y-120144818D01*
X194674451Y-120144546D01*
X194673939Y-120144415D01*
X194673879Y-120144693D01*
X194656481Y-120140908D01*
X194606972Y-120137367D01*
X194598136Y-120136417D01*
X194584799Y-120134500D01*
X194571321Y-120134500D01*
X194562459Y-120134183D01*
X194522779Y-120131345D01*
X194512930Y-120130641D01*
X194512928Y-120130641D01*
X194512927Y-120130641D01*
X194512925Y-120130641D01*
X194495162Y-120131912D01*
X194495141Y-120131626D01*
X194468417Y-120134500D01*
X187246991Y-120134500D01*
X187151703Y-120115546D01*
X187070921Y-120061570D01*
X187054511Y-120043463D01*
X186927416Y-119888596D01*
X186927403Y-119888583D01*
X186767452Y-119757316D01*
X186584955Y-119659768D01*
X186386934Y-119599699D01*
X186232608Y-119584500D01*
X185229392Y-119584500D01*
X185229391Y-119584500D01*
X185075065Y-119599699D01*
X184877044Y-119659768D01*
X184694547Y-119757316D01*
X184534596Y-119888583D01*
X184534583Y-119888596D01*
X184403316Y-120048547D01*
X184305768Y-120231044D01*
X184245700Y-120429065D01*
X184225417Y-120635000D01*
X184245700Y-120840934D01*
X184305768Y-121038955D01*
X184403316Y-121221452D01*
X184534583Y-121381403D01*
X184534596Y-121381416D01*
X184694547Y-121512683D01*
X184694548Y-121512683D01*
X184694550Y-121512685D01*
X184877044Y-121610231D01*
X184877043Y-121610231D01*
X185063270Y-121666722D01*
X185148953Y-121712520D01*
X185210587Y-121787622D01*
X185238790Y-121880594D01*
X185229267Y-121977281D01*
X185183469Y-122062964D01*
X185108367Y-122124598D01*
X185063270Y-122143278D01*
X184877044Y-122199768D01*
X184694547Y-122297316D01*
X184534596Y-122428583D01*
X184534583Y-122428596D01*
X184403316Y-122588547D01*
X184305768Y-122771044D01*
X184245700Y-122969065D01*
X184225417Y-123175000D01*
X184245700Y-123380934D01*
X184305768Y-123578955D01*
X184403316Y-123761452D01*
X184534583Y-123921403D01*
X184534596Y-123921416D01*
X184694547Y-124052683D01*
X184694548Y-124052683D01*
X184694550Y-124052685D01*
X184877044Y-124150231D01*
X184877043Y-124150231D01*
X185063270Y-124206722D01*
X185148953Y-124252520D01*
X185210587Y-124327622D01*
X185238790Y-124420594D01*
X185229267Y-124517281D01*
X185183469Y-124602964D01*
X185108367Y-124664598D01*
X185063270Y-124683278D01*
X184877044Y-124739768D01*
X184713122Y-124827388D01*
X184620150Y-124855591D01*
X184523463Y-124846068D01*
X184437780Y-124800270D01*
X184419673Y-124783859D01*
X184121993Y-124486179D01*
X183760430Y-124124615D01*
X183706454Y-124043834D01*
X183687500Y-123948546D01*
X183687500Y-120018453D01*
X183706454Y-119923165D01*
X183760430Y-119842383D01*
X184792384Y-118810430D01*
X184873166Y-118756454D01*
X184968454Y-118737500D01*
X195035415Y-118737500D01*
X195130703Y-118756454D01*
G37*
%TD.AperFunction*%
%TA.AperFunction,Conductor*%
G36*
X191699788Y-123694454D02*
G01*
X191780570Y-123748430D01*
X191834546Y-123829212D01*
X191853500Y-123924500D01*
X191853500Y-124024676D01*
X191868033Y-124097739D01*
X191923397Y-124180599D01*
X191923399Y-124180601D01*
X192006260Y-124235966D01*
X192015884Y-124237880D01*
X192041247Y-124242926D01*
X192131006Y-124280106D01*
X192199705Y-124348805D01*
X192236884Y-124438565D01*
X192236883Y-124535720D01*
X192199703Y-124625479D01*
X192135490Y-124691109D01*
X192065186Y-124740336D01*
X191904335Y-124901187D01*
X191773866Y-125087517D01*
X191773864Y-125087520D01*
X191760099Y-125117040D01*
X191702650Y-125195390D01*
X191619591Y-125245791D01*
X191523567Y-125260570D01*
X191429196Y-125237477D01*
X191358359Y-125187877D01*
X191325035Y-125154553D01*
X191178302Y-125064047D01*
X191178304Y-125064047D01*
X191027000Y-125013910D01*
X191027000Y-125636999D01*
X191027001Y-125637000D01*
X191563999Y-125637000D01*
X191564000Y-125636998D01*
X191564000Y-125589000D01*
X191582954Y-125493712D01*
X191636930Y-125412930D01*
X191717712Y-125358954D01*
X191813000Y-125340000D01*
X193272519Y-125340000D01*
X193178852Y-125354835D01*
X193065955Y-125412359D01*
X192976359Y-125501955D01*
X192918835Y-125614852D01*
X192899014Y-125740000D01*
X192918835Y-125865148D01*
X192976359Y-125978045D01*
X193065955Y-126067641D01*
X193178852Y-126125165D01*
X193272519Y-126140000D01*
X191665321Y-126140000D01*
X191662253Y-126143997D01*
X191667268Y-126220499D01*
X191636039Y-126312498D01*
X191571981Y-126385544D01*
X191484846Y-126428515D01*
X191420398Y-126437000D01*
X189657196Y-126437000D01*
X189662319Y-126487152D01*
X189716546Y-126650802D01*
X189807053Y-126797535D01*
X189923431Y-126913913D01*
X189977407Y-126994695D01*
X189996361Y-127089983D01*
X189977407Y-127185271D01*
X189963760Y-127209239D01*
X189965322Y-127210092D01*
X189956789Y-127225717D01*
X189907749Y-127357201D01*
X189904614Y-127370468D01*
X189864253Y-127458843D01*
X189838358Y-127489273D01*
X187356062Y-129971570D01*
X187275280Y-130025546D01*
X187179992Y-130044500D01*
X187011520Y-130044500D01*
X186916232Y-130025546D01*
X186853557Y-129987980D01*
X186767450Y-129917315D01*
X186705716Y-129884317D01*
X186630614Y-129822683D01*
X186584816Y-129736999D01*
X186575293Y-129640312D01*
X186603496Y-129547341D01*
X186665130Y-129472239D01*
X186717863Y-129439048D01*
X186833480Y-129385135D01*
X186833482Y-129385133D01*
X187019812Y-129254664D01*
X187180664Y-129093812D01*
X187311133Y-128907483D01*
X187407266Y-128701324D01*
X187419679Y-128655000D01*
X185937535Y-128655000D01*
X185987357Y-128631007D01*
X186086798Y-128538740D01*
X186154625Y-128421260D01*
X186184810Y-128289008D01*
X186174673Y-128153735D01*
X186125113Y-128027459D01*
X186040535Y-127921401D01*
X185943144Y-127855000D01*
X187419680Y-127855000D01*
X187419679Y-127854999D01*
X187407266Y-127808675D01*
X187311133Y-127602516D01*
X187180664Y-127416187D01*
X187019812Y-127255335D01*
X186833482Y-127124866D01*
X186833479Y-127124864D01*
X186717861Y-127070950D01*
X186639511Y-127013501D01*
X186589110Y-126930442D01*
X186574331Y-126834418D01*
X186597424Y-126740047D01*
X186654873Y-126661697D01*
X186705713Y-126625683D01*
X186767450Y-126592685D01*
X186905367Y-126479500D01*
X186927403Y-126461416D01*
X186927404Y-126461414D01*
X186927410Y-126461410D01*
X186944534Y-126440545D01*
X187015969Y-126353500D01*
X187058685Y-126301450D01*
X187156232Y-126118954D01*
X187216300Y-125920934D01*
X187236583Y-125715000D01*
X187228901Y-125637000D01*
X189657194Y-125637000D01*
X190226999Y-125637000D01*
X190227000Y-125636998D01*
X190227000Y-125013910D01*
X190075696Y-125064047D01*
X189928964Y-125154553D01*
X189807053Y-125276464D01*
X189716546Y-125423198D01*
X189662319Y-125586850D01*
X189662317Y-125586858D01*
X189657194Y-125636999D01*
X189657194Y-125637000D01*
X187228901Y-125637000D01*
X187216300Y-125509066D01*
X187156232Y-125311046D01*
X187147652Y-125294995D01*
X187116070Y-125235909D01*
X187058685Y-125128550D01*
X187058683Y-125128547D01*
X186927416Y-124968596D01*
X186927403Y-124968583D01*
X186767452Y-124837316D01*
X186584955Y-124739768D01*
X186584953Y-124739767D01*
X186398730Y-124683278D01*
X186313046Y-124637480D01*
X186251412Y-124562378D01*
X186223209Y-124469407D01*
X186232732Y-124372720D01*
X186278530Y-124287036D01*
X186353632Y-124225402D01*
X186398730Y-124206722D01*
X186502542Y-124175231D01*
X186584954Y-124150232D01*
X186767450Y-124052685D01*
X186860893Y-123975998D01*
X186927403Y-123921416D01*
X186927404Y-123921414D01*
X186927410Y-123921410D01*
X186970886Y-123868434D01*
X187054511Y-123766537D01*
X187129612Y-123704902D01*
X187222584Y-123676699D01*
X187246991Y-123675500D01*
X191604500Y-123675500D01*
X191699788Y-123694454D01*
G37*
%TD.AperFunction*%
%TA.AperFunction,Conductor*%
G36*
X195275944Y-125858297D02*
G01*
X195363080Y-125901267D01*
X195427139Y-125974312D01*
X195458369Y-126066311D01*
X195460499Y-126098813D01*
X195460499Y-128858545D01*
X195441545Y-128953833D01*
X195387569Y-129034615D01*
X194544472Y-129877712D01*
X194463690Y-129931688D01*
X194368402Y-129950642D01*
X194273114Y-129931688D01*
X194251024Y-129921240D01*
X194107960Y-129844770D01*
X194107958Y-129844769D01*
X193921728Y-129788277D01*
X193836046Y-129742478D01*
X193774411Y-129667376D01*
X193746209Y-129574405D01*
X193755732Y-129477717D01*
X193801531Y-129392035D01*
X193876633Y-129330400D01*
X193921717Y-129311725D01*
X194107954Y-129255232D01*
X194290450Y-129157685D01*
X194395906Y-129071140D01*
X194450403Y-129026416D01*
X194450404Y-129026414D01*
X194450410Y-129026410D01*
X194461557Y-129012828D01*
X194549844Y-128905248D01*
X194581685Y-128866450D01*
X194679232Y-128683954D01*
X194739300Y-128485934D01*
X194759583Y-128280000D01*
X194739300Y-128074066D01*
X194679232Y-127876046D01*
X194581685Y-127693550D01*
X194580413Y-127692000D01*
X194450416Y-127533596D01*
X194450403Y-127533583D01*
X194290450Y-127402315D01*
X194228716Y-127369317D01*
X194153614Y-127307683D01*
X194107816Y-127221999D01*
X194098293Y-127125312D01*
X194126496Y-127032341D01*
X194188130Y-126957239D01*
X194240863Y-126924048D01*
X194356480Y-126870135D01*
X194356482Y-126870133D01*
X194542812Y-126739664D01*
X194703664Y-126578812D01*
X194834133Y-126392483D01*
X194930267Y-126186322D01*
X194970983Y-126034368D01*
X195013953Y-125947232D01*
X195086998Y-125883173D01*
X195178997Y-125851943D01*
X195275944Y-125858297D01*
G37*
%TD.AperFunction*%
%TA.AperFunction,Conductor*%
G36*
X222987835Y-126327648D02*
G01*
X223045359Y-126440545D01*
X223134955Y-126530141D01*
X223247852Y-126587665D01*
X223341519Y-126602500D01*
X223222000Y-126602500D01*
X223126712Y-126583546D01*
X223045930Y-126529570D01*
X222991954Y-126448788D01*
X222973000Y-126353500D01*
X222973000Y-126233981D01*
X222987835Y-126327648D01*
G37*
%TD.AperFunction*%
%TA.AperFunction,Conductor*%
G36*
X223247852Y-125817335D02*
G01*
X223134955Y-125874859D01*
X223045359Y-125964455D01*
X222987835Y-126077352D01*
X222973000Y-126171018D01*
X222973000Y-126051500D01*
X222991954Y-125956212D01*
X223045930Y-125875430D01*
X223126712Y-125821454D01*
X223222000Y-125802500D01*
X223341519Y-125802500D01*
X223247852Y-125817335D01*
G37*
%TD.AperFunction*%
%TA.AperFunction,Conductor*%
G36*
X193704000Y-125891000D02*
G01*
X193685046Y-125986288D01*
X193631070Y-126067070D01*
X193550288Y-126121046D01*
X193455000Y-126140000D01*
X193335481Y-126140000D01*
X193429148Y-126125165D01*
X193542045Y-126067641D01*
X193631641Y-125978045D01*
X193689165Y-125865148D01*
X193704000Y-125771481D01*
X193704000Y-125891000D01*
G37*
%TD.AperFunction*%
%TA.AperFunction,Conductor*%
G36*
X193550288Y-125358954D02*
G01*
X193631070Y-125412930D01*
X193685046Y-125493712D01*
X193704000Y-125589000D01*
X193704000Y-125708518D01*
X193689165Y-125614852D01*
X193631641Y-125501955D01*
X193542045Y-125412359D01*
X193429148Y-125354835D01*
X193335481Y-125340000D01*
X193455000Y-125340000D01*
X193550288Y-125358954D01*
G37*
%TD.AperFunction*%
%TA.AperFunction,Conductor*%
G36*
X224936000Y-109962882D02*
G01*
X224992056Y-109947864D01*
X225089003Y-109941510D01*
X225181002Y-109972741D01*
X225254046Y-110036800D01*
X225297016Y-110123936D01*
X225305500Y-110188380D01*
X225305500Y-110560544D01*
X225286546Y-110655832D01*
X225232570Y-110736614D01*
X220536065Y-115433119D01*
X220515141Y-115449981D01*
X220515328Y-115450197D01*
X220501870Y-115461858D01*
X220469369Y-115499366D01*
X220463323Y-115505860D01*
X220453782Y-115515403D01*
X220453774Y-115515412D01*
X220445695Y-115526204D01*
X220440125Y-115533116D01*
X220407625Y-115570623D01*
X220397995Y-115585608D01*
X220397756Y-115585454D01*
X220397490Y-115585903D01*
X220397738Y-115586039D01*
X220389204Y-115601668D01*
X220371853Y-115648186D01*
X220368453Y-115656394D01*
X220347834Y-115701544D01*
X220342817Y-115718630D01*
X220342546Y-115718550D01*
X220342417Y-115719059D01*
X220342693Y-115719120D01*
X220338908Y-115736518D01*
X220335367Y-115786018D01*
X220334419Y-115794846D01*
X220332500Y-115808197D01*
X220332500Y-115821665D01*
X220332183Y-115830549D01*
X220328641Y-115880071D01*
X220329912Y-115897838D01*
X220329626Y-115897858D01*
X220332500Y-115924582D01*
X220332500Y-121170880D01*
X220313546Y-121266168D01*
X220259570Y-121346950D01*
X220178788Y-121400926D01*
X220155791Y-121409154D01*
X220129046Y-121417268D01*
X220129042Y-121417269D01*
X220129042Y-121417270D01*
X219946548Y-121514816D01*
X219845423Y-121597805D01*
X219759739Y-121643602D01*
X219685139Y-121650948D01*
X219685139Y-121652000D01*
X219674465Y-121652000D01*
X219663052Y-121653124D01*
X219659347Y-121652000D01*
X218332001Y-121652000D01*
X218332000Y-121652001D01*
X218332000Y-123501997D01*
X218332001Y-123501999D01*
X218881968Y-123501999D01*
X218881984Y-123501998D01*
X218984699Y-123491505D01*
X218984702Y-123491504D01*
X219151119Y-123436359D01*
X219151121Y-123436358D01*
X219300341Y-123344318D01*
X219300345Y-123344315D01*
X219424314Y-123220346D01*
X219429807Y-123211441D01*
X219495961Y-123140288D01*
X219584308Y-123099867D01*
X219681399Y-123096332D01*
X219772452Y-123130220D01*
X219799703Y-123149672D01*
X219889162Y-123223088D01*
X219946550Y-123270185D01*
X220008284Y-123303183D01*
X220083384Y-123364815D01*
X220129183Y-123450498D01*
X220138706Y-123547186D01*
X220110504Y-123640157D01*
X220048870Y-123715259D01*
X219996138Y-123748450D01*
X219880521Y-123802363D01*
X219880517Y-123802366D01*
X219694187Y-123932835D01*
X219533335Y-124093687D01*
X219402866Y-124280016D01*
X219306731Y-124486179D01*
X219302422Y-124502262D01*
X219259450Y-124589398D01*
X219186405Y-124653456D01*
X219094405Y-124684684D01*
X218997459Y-124678329D01*
X218974894Y-124671116D01*
X218939482Y-124657908D01*
X218879876Y-124651500D01*
X218879873Y-124651500D01*
X217096008Y-124651500D01*
X217000720Y-124632546D01*
X216919938Y-124578570D01*
X216850429Y-124509061D01*
X216796453Y-124428279D01*
X216777499Y-124332995D01*
X216777499Y-123750994D01*
X216796453Y-123655711D01*
X216850429Y-123574929D01*
X216931211Y-123520953D01*
X217026499Y-123501999D01*
X217531999Y-123501999D01*
X217531999Y-120851998D01*
X218332000Y-120851998D01*
X218332001Y-120852000D01*
X219581998Y-120852000D01*
X219581999Y-120851998D01*
X219581999Y-119702032D01*
X219581998Y-119702015D01*
X219571505Y-119599300D01*
X219571504Y-119599297D01*
X219516359Y-119432880D01*
X219516358Y-119432878D01*
X219424318Y-119283658D01*
X219424315Y-119283654D01*
X219300345Y-119159684D01*
X219300341Y-119159681D01*
X219151121Y-119067641D01*
X219151120Y-119067640D01*
X218984701Y-119012495D01*
X218984694Y-119012494D01*
X218881981Y-119002000D01*
X218332001Y-119002000D01*
X218332000Y-119002001D01*
X218332000Y-120851998D01*
X217531999Y-120851998D01*
X217531999Y-119002000D01*
X217026499Y-119002000D01*
X216931211Y-118983046D01*
X216850429Y-118929070D01*
X216796453Y-118848288D01*
X216777499Y-118753000D01*
X216777499Y-117508008D01*
X216796453Y-117412720D01*
X216850429Y-117331938D01*
X219655053Y-114527314D01*
X222475209Y-111707157D01*
X222502579Y-111683506D01*
X222514530Y-111674610D01*
X222546363Y-111636671D01*
X222553683Y-111628683D01*
X222557591Y-111624777D01*
X222576823Y-111600453D01*
X222579094Y-111597663D01*
X222627302Y-111540214D01*
X222627305Y-111540209D01*
X222633332Y-111531045D01*
X222639106Y-111521682D01*
X222639111Y-111521677D01*
X222670824Y-111453665D01*
X222672351Y-111450510D01*
X222706040Y-111383433D01*
X222706041Y-111383426D01*
X222709810Y-111373074D01*
X222713256Y-111362677D01*
X222715463Y-111351989D01*
X222728427Y-111289196D01*
X222729206Y-111285686D01*
X222737162Y-111252118D01*
X222746500Y-111212721D01*
X222746500Y-111212710D01*
X222747773Y-111201820D01*
X222748731Y-111190867D01*
X222748734Y-111190856D01*
X222747501Y-111148514D01*
X222746553Y-111115880D01*
X222746500Y-111112259D01*
X222746500Y-109565546D01*
X222765454Y-109470258D01*
X222803021Y-109407582D01*
X222837128Y-109366022D01*
X222890395Y-109301116D01*
X222905462Y-109272927D01*
X222967092Y-109197826D01*
X223052774Y-109152026D01*
X223149461Y-109142500D01*
X223242433Y-109170701D01*
X223317537Y-109232333D01*
X223350731Y-109285069D01*
X223388478Y-109366018D01*
X223388480Y-109366022D01*
X223520958Y-109555219D01*
X223684280Y-109718541D01*
X223873477Y-109851019D01*
X223873480Y-109851020D01*
X224082811Y-109948632D01*
X224135999Y-109962883D01*
X224135999Y-108486039D01*
X224141887Y-108501041D01*
X224226465Y-108607099D01*
X224338547Y-108683516D01*
X224468173Y-108723500D01*
X224569724Y-108723500D01*
X224670138Y-108708365D01*
X224792357Y-108649507D01*
X224891798Y-108557240D01*
X224936000Y-108480679D01*
X224936000Y-109962882D01*
G37*
%TD.AperFunction*%
%TA.AperFunction,Conductor*%
G36*
X237008788Y-104422954D02*
G01*
X237089570Y-104476930D01*
X237143546Y-104557712D01*
X237162500Y-104653000D01*
X237162500Y-154681000D01*
X237143546Y-154776288D01*
X237089570Y-154857070D01*
X237008788Y-154911046D01*
X236913500Y-154930000D01*
X182186500Y-154930000D01*
X182091212Y-154911046D01*
X182010430Y-154857070D01*
X181956454Y-154776288D01*
X181937500Y-154681000D01*
X181937500Y-151226499D01*
X185943578Y-151226499D01*
X185943579Y-151226500D01*
X187146647Y-151226500D01*
X187071901Y-151323911D01*
X187011444Y-151469869D01*
X186990823Y-151626500D01*
X187011444Y-151783131D01*
X187071901Y-151929088D01*
X187146647Y-152026500D01*
X185943579Y-152026500D01*
X185966970Y-152128988D01*
X186060056Y-152366167D01*
X186060062Y-152366179D01*
X186187453Y-152586827D01*
X186346316Y-152786035D01*
X186346321Y-152786040D01*
X186533096Y-152959342D01*
X186743615Y-153102870D01*
X186743625Y-153102876D01*
X186973170Y-153213419D01*
X187196000Y-153282153D01*
X187196000Y-152075852D01*
X187293412Y-152150599D01*
X187439369Y-152211056D01*
X187556677Y-152226500D01*
X187635323Y-152226500D01*
X187752631Y-152211056D01*
X187898588Y-152150599D01*
X187996000Y-152075852D01*
X187996000Y-153282153D01*
X188218818Y-153213424D01*
X188448387Y-153102869D01*
X188658902Y-152959343D01*
X188845678Y-152786040D01*
X188845683Y-152786035D01*
X189004546Y-152586827D01*
X189131937Y-152366179D01*
X189131943Y-152366167D01*
X189225029Y-152128988D01*
X189248421Y-152026500D01*
X188045353Y-152026500D01*
X188120099Y-151929089D01*
X188180556Y-151783131D01*
X188201177Y-151626500D01*
X188180556Y-151469869D01*
X188120099Y-151323912D01*
X188045353Y-151226500D01*
X189248421Y-151226500D01*
X189248421Y-151226499D01*
X189225029Y-151124011D01*
X189131943Y-150886832D01*
X189131937Y-150886820D01*
X189004546Y-150666172D01*
X188845683Y-150466964D01*
X188845678Y-150466959D01*
X188658902Y-150293656D01*
X188448387Y-150150129D01*
X188448383Y-150150127D01*
X188218828Y-150039579D01*
X188218822Y-150039577D01*
X187996000Y-149970844D01*
X187996000Y-151177147D01*
X187898588Y-151102401D01*
X187752631Y-151041944D01*
X187635323Y-151026500D01*
X187556677Y-151026500D01*
X187439369Y-151041944D01*
X187293412Y-151102401D01*
X187196000Y-151177147D01*
X187196000Y-149970845D01*
X187195999Y-149970844D01*
X186973176Y-150039577D01*
X186743625Y-150150123D01*
X186743615Y-150150129D01*
X186533096Y-150293657D01*
X186346321Y-150466959D01*
X186346316Y-150466964D01*
X186187453Y-150666172D01*
X186060062Y-150886820D01*
X186060056Y-150886832D01*
X185966970Y-151124011D01*
X185943578Y-151226499D01*
X181937500Y-151226499D01*
X181937500Y-145130499D01*
X185943578Y-145130499D01*
X185943579Y-145130500D01*
X187146647Y-145130500D01*
X187071901Y-145227911D01*
X187011444Y-145373869D01*
X186990823Y-145530500D01*
X187011444Y-145687131D01*
X187071901Y-145833088D01*
X187146647Y-145930500D01*
X185943579Y-145930500D01*
X185966970Y-146032988D01*
X186060056Y-146270167D01*
X186060062Y-146270179D01*
X186187453Y-146490827D01*
X186346316Y-146690035D01*
X186346321Y-146690040D01*
X186533096Y-146863342D01*
X186743615Y-147006870D01*
X186743625Y-147006876D01*
X186973170Y-147117419D01*
X187196000Y-147186153D01*
X187196000Y-145979852D01*
X187293412Y-146054599D01*
X187439369Y-146115056D01*
X187556677Y-146130500D01*
X187635323Y-146130500D01*
X187752631Y-146115056D01*
X187898588Y-146054599D01*
X187996000Y-145979852D01*
X187996000Y-147186153D01*
X188218818Y-147117424D01*
X188448387Y-147006869D01*
X188658902Y-146863343D01*
X188845678Y-146690040D01*
X188845683Y-146690035D01*
X189004546Y-146490827D01*
X189131937Y-146270179D01*
X189131943Y-146270167D01*
X189225029Y-146032988D01*
X189248421Y-145930500D01*
X188045353Y-145930500D01*
X188120099Y-145833089D01*
X188180556Y-145687131D01*
X188201177Y-145530500D01*
X188180556Y-145373869D01*
X188120099Y-145227912D01*
X188045353Y-145130500D01*
X189248421Y-145130500D01*
X189248421Y-145130499D01*
X189225029Y-145028011D01*
X189131943Y-144790832D01*
X189131937Y-144790820D01*
X189004546Y-144570172D01*
X188845683Y-144370964D01*
X188845678Y-144370959D01*
X188658902Y-144197656D01*
X188448387Y-144054129D01*
X188448383Y-144054127D01*
X188218828Y-143943579D01*
X188218822Y-143943577D01*
X187996000Y-143874844D01*
X187996000Y-145081147D01*
X187898588Y-145006401D01*
X187752631Y-144945944D01*
X187635323Y-144930500D01*
X187556677Y-144930500D01*
X187439369Y-144945944D01*
X187293412Y-145006401D01*
X187196000Y-145081147D01*
X187196000Y-143874845D01*
X187195999Y-143874844D01*
X186973176Y-143943577D01*
X186743625Y-144054123D01*
X186743615Y-144054129D01*
X186533096Y-144197657D01*
X186346321Y-144370959D01*
X186346316Y-144370964D01*
X186187453Y-144570172D01*
X186060062Y-144790820D01*
X186060056Y-144790832D01*
X185966970Y-145028011D01*
X185943578Y-145130499D01*
X181937500Y-145130499D01*
X181937500Y-140985129D01*
X191685554Y-140985129D01*
X191831676Y-141053267D01*
X192051396Y-141112140D01*
X192277999Y-141131965D01*
X192504602Y-141112140D01*
X192504603Y-141112140D01*
X192724328Y-141053265D01*
X192870444Y-140985130D01*
X192278000Y-140392685D01*
X191685554Y-140985129D01*
X181937500Y-140985129D01*
X181937500Y-124222927D01*
X182682641Y-124222927D01*
X182686183Y-124272460D01*
X182686500Y-124281320D01*
X182686500Y-124294798D01*
X182688417Y-124308134D01*
X182689367Y-124316972D01*
X182692908Y-124366481D01*
X182696693Y-124383879D01*
X182696415Y-124383939D01*
X182696546Y-124384451D01*
X182696818Y-124384372D01*
X182701835Y-124401458D01*
X182722453Y-124446604D01*
X182725854Y-124454815D01*
X182743204Y-124501331D01*
X182743206Y-124501333D01*
X182751739Y-124516961D01*
X182751488Y-124517097D01*
X182751753Y-124517545D01*
X182751994Y-124517391D01*
X182761621Y-124532371D01*
X182794123Y-124569881D01*
X182799698Y-124576799D01*
X182807774Y-124587587D01*
X182807782Y-124587596D01*
X182817310Y-124597124D01*
X182823369Y-124603632D01*
X182855871Y-124641142D01*
X182869330Y-124652804D01*
X182869142Y-124653020D01*
X182890070Y-124669884D01*
X184232115Y-126011929D01*
X184248977Y-126032854D01*
X184249193Y-126032668D01*
X184262679Y-126048231D01*
X184299779Y-126108285D01*
X184300002Y-126108166D01*
X184301905Y-126111727D01*
X184304542Y-126115995D01*
X184305766Y-126118950D01*
X184305767Y-126118953D01*
X184305768Y-126118954D01*
X184323851Y-126152785D01*
X184403315Y-126301450D01*
X184534583Y-126461403D01*
X184534596Y-126461416D01*
X184694547Y-126592683D01*
X184694548Y-126592683D01*
X184694550Y-126592685D01*
X184756284Y-126625683D01*
X184831384Y-126687315D01*
X184877183Y-126772998D01*
X184886706Y-126869686D01*
X184858504Y-126962657D01*
X184796870Y-127037759D01*
X184744138Y-127070950D01*
X184628521Y-127124863D01*
X184628517Y-127124866D01*
X184442187Y-127255335D01*
X184281335Y-127416187D01*
X184150866Y-127602516D01*
X184054733Y-127808675D01*
X184042320Y-127854999D01*
X184042320Y-127855000D01*
X185524465Y-127855000D01*
X185474643Y-127878993D01*
X185375202Y-127971260D01*
X185307375Y-128088740D01*
X185277190Y-128220992D01*
X185287327Y-128356265D01*
X185336887Y-128482541D01*
X185421465Y-128588599D01*
X185518856Y-128655000D01*
X184042320Y-128655000D01*
X184054733Y-128701324D01*
X184150866Y-128907483D01*
X184281335Y-129093812D01*
X184442187Y-129254664D01*
X184628516Y-129385133D01*
X184744137Y-129439048D01*
X184822487Y-129496497D01*
X184872888Y-129579556D01*
X184887668Y-129675580D01*
X184864576Y-129769951D01*
X184807127Y-129848301D01*
X184756284Y-129884316D01*
X184694554Y-129917311D01*
X184534592Y-130048588D01*
X184534582Y-130048598D01*
X184516962Y-130070068D01*
X184461313Y-130120137D01*
X184399203Y-130160986D01*
X184396152Y-130162930D01*
X184332340Y-130202291D01*
X184323736Y-130209094D01*
X184315300Y-130216172D01*
X184263842Y-130270715D01*
X184261319Y-130273312D01*
X183289796Y-131244834D01*
X183262428Y-131268486D01*
X183250473Y-131277386D01*
X183250469Y-131277389D01*
X183218644Y-131315316D01*
X183211323Y-131323307D01*
X183207408Y-131327223D01*
X183207406Y-131327225D01*
X183188192Y-131351526D01*
X183185905Y-131354333D01*
X183137695Y-131411788D01*
X183131672Y-131420945D01*
X183125890Y-131430321D01*
X183125889Y-131430322D01*
X183125889Y-131430323D01*
X183098791Y-131488434D01*
X183094198Y-131498283D01*
X183092621Y-131501538D01*
X183058958Y-131568570D01*
X183055200Y-131578893D01*
X183051741Y-131589332D01*
X183036579Y-131662761D01*
X183035796Y-131666294D01*
X183018501Y-131739271D01*
X183017220Y-131750233D01*
X183016266Y-131761139D01*
X183018447Y-131836118D01*
X183018500Y-131839739D01*
X183018500Y-134547188D01*
X183015871Y-134583275D01*
X183013711Y-134598018D01*
X183013711Y-134598022D01*
X183018026Y-134647352D01*
X183018500Y-134658206D01*
X183018500Y-134663714D01*
X183022098Y-134694504D01*
X183022466Y-134698104D01*
X183029000Y-134772796D01*
X183031213Y-134783515D01*
X183033758Y-134794255D01*
X183059406Y-134864725D01*
X183060594Y-134868142D01*
X183084187Y-134939338D01*
X183088850Y-134949338D01*
X183093760Y-134959113D01*
X183093763Y-134959117D01*
X183134979Y-135021784D01*
X183136898Y-135024797D01*
X183176288Y-135088656D01*
X183183096Y-135097267D01*
X183190170Y-135105696D01*
X183244700Y-135157142D01*
X183247279Y-135159648D01*
X184469570Y-136381938D01*
X184523546Y-136462720D01*
X184542500Y-136558008D01*
X184542500Y-138066228D01*
X184523546Y-138161516D01*
X184469570Y-138242298D01*
X184436322Y-138270196D01*
X184421601Y-138280503D01*
X184254504Y-138447600D01*
X184118965Y-138641169D01*
X184118961Y-138641177D01*
X184019098Y-138855333D01*
X184019097Y-138855335D01*
X183957935Y-139083598D01*
X183937341Y-139318994D01*
X183937341Y-139319005D01*
X183957935Y-139554401D01*
X183970259Y-139600397D01*
X184019097Y-139782663D01*
X184066573Y-139884475D01*
X184118965Y-139996830D01*
X184243383Y-140174518D01*
X184254505Y-140190401D01*
X184421599Y-140357495D01*
X184615170Y-140493035D01*
X184829337Y-140592903D01*
X185057592Y-140654063D01*
X185057595Y-140654063D01*
X185057598Y-140654064D01*
X185292995Y-140674659D01*
X185293000Y-140674659D01*
X185293005Y-140674659D01*
X185528401Y-140654064D01*
X185528403Y-140654063D01*
X185528408Y-140654063D01*
X185756663Y-140592903D01*
X185970830Y-140493035D01*
X186116982Y-140390697D01*
X186205902Y-140351572D01*
X186303034Y-140349452D01*
X186393583Y-140384664D01*
X186463765Y-140451847D01*
X186489841Y-140499377D01*
X186497032Y-140516736D01*
X186497033Y-140516738D01*
X186497034Y-140516740D01*
X186524900Y-140558446D01*
X186552397Y-140599599D01*
X186552400Y-140599602D01*
X186579895Y-140617973D01*
X186635260Y-140654966D01*
X186708324Y-140669499D01*
X186708325Y-140669500D01*
X186708326Y-140669500D01*
X188957675Y-140669500D01*
X188957675Y-140669499D01*
X189030740Y-140654966D01*
X189113601Y-140599601D01*
X189168966Y-140516740D01*
X189183500Y-140443674D01*
X189183500Y-139826999D01*
X190973034Y-139826999D01*
X190992859Y-140053602D01*
X190992859Y-140053603D01*
X191051733Y-140273326D01*
X191119868Y-140419443D01*
X191712311Y-139827000D01*
X191873014Y-139827000D01*
X191892835Y-139952148D01*
X191950359Y-140065045D01*
X192039955Y-140154641D01*
X192152852Y-140212165D01*
X192246519Y-140227000D01*
X192309481Y-140227000D01*
X192403148Y-140212165D01*
X192516045Y-140154641D01*
X192605641Y-140065045D01*
X192663165Y-139952148D01*
X192682986Y-139827000D01*
X192682986Y-139826998D01*
X192843685Y-139826998D01*
X193436130Y-140419443D01*
X193504265Y-140273328D01*
X193563140Y-140053603D01*
X193563140Y-140053602D01*
X193582965Y-139826999D01*
X193563140Y-139600397D01*
X193563140Y-139600396D01*
X193504267Y-139380676D01*
X193436129Y-139234555D01*
X192843685Y-139826998D01*
X192682986Y-139826998D01*
X192663165Y-139701852D01*
X192605641Y-139588955D01*
X192516045Y-139499359D01*
X192403148Y-139441835D01*
X192309481Y-139427000D01*
X192246519Y-139427000D01*
X192152852Y-139441835D01*
X192039955Y-139499359D01*
X191950359Y-139588955D01*
X191892835Y-139701852D01*
X191873014Y-139827000D01*
X191712311Y-139827000D01*
X191712313Y-139826998D01*
X191119869Y-139234555D01*
X191051733Y-139380675D01*
X190992859Y-139600396D01*
X190992859Y-139600397D01*
X190973034Y-139826999D01*
X189183500Y-139826999D01*
X189183500Y-139133006D01*
X189202454Y-139037718D01*
X189256428Y-138956938D01*
X189544498Y-138668868D01*
X191685555Y-138668868D01*
X192278000Y-139261313D01*
X192870444Y-138668869D01*
X192870443Y-138668868D01*
X192724326Y-138600733D01*
X192504603Y-138541859D01*
X192277999Y-138522034D01*
X192051397Y-138541859D01*
X192051396Y-138541859D01*
X191831675Y-138600733D01*
X191685555Y-138668868D01*
X189544498Y-138668868D01*
X191652910Y-136560455D01*
X191733689Y-136506482D01*
X191828977Y-136487528D01*
X191901257Y-136498250D01*
X191928395Y-136506482D01*
X192053066Y-136544300D01*
X192259000Y-136564583D01*
X192464934Y-136544300D01*
X192662954Y-136484232D01*
X192845450Y-136386685D01*
X192869952Y-136366576D01*
X192931557Y-136316020D01*
X193017240Y-136270222D01*
X193089520Y-136259500D01*
X194149992Y-136259500D01*
X194245280Y-136278454D01*
X194326062Y-136332430D01*
X204003331Y-146009698D01*
X204026988Y-146037073D01*
X204027182Y-146037334D01*
X204035890Y-146049030D01*
X204056553Y-146066368D01*
X204117365Y-146142136D01*
X204144552Y-146235410D01*
X204145500Y-146257114D01*
X204145500Y-146755176D01*
X204160033Y-146828239D01*
X204215397Y-146911099D01*
X204215399Y-146911101D01*
X204298260Y-146966466D01*
X204371324Y-146980999D01*
X204371325Y-146981000D01*
X204371326Y-146981000D01*
X206820675Y-146981000D01*
X206820675Y-146980999D01*
X206893740Y-146966466D01*
X206976601Y-146911101D01*
X207031966Y-146828240D01*
X207046500Y-146755174D01*
X207046500Y-145244507D01*
X207065454Y-145149219D01*
X207119430Y-145068437D01*
X208153806Y-144034061D01*
X208803150Y-143384717D01*
X208883930Y-143330743D01*
X208979218Y-143311789D01*
X209074506Y-143330743D01*
X209155288Y-143384719D01*
X209209264Y-143465501D01*
X209228218Y-143560789D01*
X209209264Y-143656077D01*
X209183187Y-143703609D01*
X209081969Y-143848163D01*
X209081961Y-143848177D01*
X208982098Y-144062333D01*
X208982097Y-144062335D01*
X208920935Y-144290598D01*
X208900341Y-144525994D01*
X208900341Y-144526005D01*
X208920935Y-144761401D01*
X208970964Y-144948116D01*
X208982097Y-144989663D01*
X209070533Y-145179314D01*
X209081965Y-145203830D01*
X209174777Y-145336380D01*
X209217505Y-145397401D01*
X209384599Y-145564495D01*
X209399315Y-145574799D01*
X209466500Y-145644977D01*
X209501716Y-145735525D01*
X209505500Y-145778771D01*
X209505500Y-146453992D01*
X209486546Y-146549280D01*
X209432570Y-146630062D01*
X205959562Y-150103070D01*
X205878780Y-150157046D01*
X205783492Y-150176000D01*
X204371323Y-150176000D01*
X204298260Y-150190533D01*
X204215400Y-150245897D01*
X204215397Y-150245900D01*
X204160033Y-150328760D01*
X204145500Y-150401823D01*
X204145500Y-152851176D01*
X204160033Y-152924239D01*
X204215397Y-153007099D01*
X204215399Y-153007101D01*
X204298260Y-153062466D01*
X204371324Y-153076999D01*
X204371325Y-153077000D01*
X204371326Y-153077000D01*
X206820675Y-153077000D01*
X206820675Y-153076999D01*
X206893740Y-153062466D01*
X206976601Y-153007101D01*
X207031966Y-152924240D01*
X207046500Y-152851174D01*
X207046500Y-152625999D01*
X207065454Y-152530712D01*
X207119430Y-152449930D01*
X207200212Y-152395954D01*
X207295500Y-152377000D01*
X209488688Y-152377000D01*
X209524776Y-152379628D01*
X209539523Y-152381789D01*
X209571808Y-152378964D01*
X209588853Y-152377474D01*
X209599707Y-152377000D01*
X209605210Y-152377000D01*
X209610289Y-152376406D01*
X209636005Y-152373399D01*
X209639531Y-152373039D01*
X209714297Y-152366499D01*
X209714298Y-152366498D01*
X209725037Y-152364281D01*
X209735753Y-152361741D01*
X209735755Y-152361741D01*
X209806247Y-152336083D01*
X209809623Y-152334910D01*
X209880834Y-152311314D01*
X209880839Y-152311310D01*
X209890805Y-152306664D01*
X209900613Y-152301738D01*
X209900617Y-152301737D01*
X209963324Y-152260493D01*
X209966258Y-152258623D01*
X210030156Y-152219212D01*
X210030165Y-152219202D01*
X210038761Y-152212406D01*
X210047189Y-152205334D01*
X210047196Y-152205330D01*
X210098677Y-152150762D01*
X210101150Y-152148217D01*
X211758937Y-150490430D01*
X211839719Y-150436454D01*
X211935007Y-150417500D01*
X227831188Y-150417500D01*
X227867276Y-150420128D01*
X227882023Y-150422289D01*
X227914308Y-150419464D01*
X227931353Y-150417974D01*
X227942207Y-150417500D01*
X227947710Y-150417500D01*
X227952789Y-150416906D01*
X227978505Y-150413899D01*
X227982031Y-150413539D01*
X228056797Y-150406999D01*
X228056798Y-150406998D01*
X228067537Y-150404781D01*
X228078253Y-150402241D01*
X228078255Y-150402241D01*
X228148747Y-150376583D01*
X228152123Y-150375410D01*
X228223334Y-150351814D01*
X228223339Y-150351810D01*
X228233305Y-150347164D01*
X228243113Y-150342238D01*
X228243117Y-150342237D01*
X228305824Y-150300993D01*
X228308758Y-150299123D01*
X228372656Y-150259712D01*
X228372665Y-150259702D01*
X228381261Y-150252906D01*
X228389689Y-150245834D01*
X228389696Y-150245830D01*
X228441177Y-150191262D01*
X228443650Y-150188717D01*
X229734821Y-148897546D01*
X233778205Y-144854160D01*
X233805575Y-144830509D01*
X233817530Y-144821610D01*
X233849369Y-144783664D01*
X233856689Y-144775676D01*
X233860590Y-144771777D01*
X233879826Y-144747447D01*
X233882049Y-144744716D01*
X233930302Y-144687214D01*
X233930304Y-144687209D01*
X233936330Y-144678049D01*
X233942108Y-144668680D01*
X233942111Y-144668677D01*
X233973803Y-144600712D01*
X233975365Y-144597482D01*
X234009040Y-144530433D01*
X234009041Y-144530425D01*
X234012804Y-144520089D01*
X234016255Y-144509675D01*
X234016254Y-144509675D01*
X234016256Y-144509673D01*
X234031420Y-144436228D01*
X234032186Y-144432767D01*
X234049500Y-144359721D01*
X234049500Y-144359717D01*
X234050773Y-144348824D01*
X234051732Y-144337861D01*
X234051731Y-144337860D01*
X234051733Y-144337856D01*
X234050350Y-144290350D01*
X234049553Y-144262901D01*
X234049500Y-144259281D01*
X234049500Y-140286613D01*
X234068454Y-140191325D01*
X234122425Y-140110549D01*
X234234098Y-139998877D01*
X234359602Y-139819639D01*
X234452075Y-139621330D01*
X234508707Y-139409977D01*
X234527777Y-139192000D01*
X234508707Y-138974023D01*
X234452075Y-138762670D01*
X234359602Y-138564362D01*
X234343845Y-138541859D01*
X234313942Y-138499152D01*
X234234098Y-138385123D01*
X234079377Y-138230402D01*
X233986540Y-138165397D01*
X233900139Y-138104898D01*
X233701828Y-138012424D01*
X233594418Y-137983644D01*
X233490477Y-137955793D01*
X233272500Y-137936723D01*
X233272497Y-137936723D01*
X233261670Y-137935776D01*
X233261773Y-137934589D01*
X233177211Y-137917769D01*
X233096429Y-137863793D01*
X233042453Y-137783011D01*
X233023499Y-137687723D01*
X233023499Y-111575038D01*
X233026373Y-111548313D01*
X233026088Y-111548293D01*
X233027359Y-111530525D01*
X233023817Y-111480998D01*
X233023500Y-111472115D01*
X233023500Y-111458652D01*
X233023500Y-111458650D01*
X233021581Y-111445309D01*
X233020632Y-111436476D01*
X233020246Y-111431081D01*
X233017091Y-111386966D01*
X233017089Y-111386960D01*
X233013305Y-111369563D01*
X233013585Y-111369501D01*
X233013457Y-111368997D01*
X233013182Y-111369078D01*
X233008164Y-111351989D01*
X232987541Y-111306832D01*
X232984138Y-111298616D01*
X232979967Y-111287434D01*
X232966796Y-111252118D01*
X232966795Y-111252116D01*
X232958261Y-111236486D01*
X232958511Y-111236349D01*
X232958245Y-111235902D01*
X232958005Y-111236057D01*
X232948378Y-111221077D01*
X232915880Y-111183572D01*
X232910301Y-111176649D01*
X232902223Y-111165859D01*
X232902222Y-111165858D01*
X232902221Y-111165856D01*
X232892689Y-111156324D01*
X232886646Y-111149835D01*
X232867478Y-111127713D01*
X232854128Y-111112305D01*
X232840671Y-111100645D01*
X232840857Y-111100429D01*
X232819929Y-111083564D01*
X230752376Y-109016011D01*
X230698400Y-108935229D01*
X230679446Y-108839941D01*
X230680644Y-108815546D01*
X230686500Y-108756093D01*
X230686500Y-107790907D01*
X230672536Y-107649132D01*
X230671011Y-107633644D01*
X230609799Y-107431855D01*
X230609796Y-107431848D01*
X230510394Y-107245883D01*
X230510392Y-107245881D01*
X230466962Y-107192960D01*
X230376627Y-107082885D01*
X230376614Y-107082872D01*
X230213616Y-106949105D01*
X230027651Y-106849703D01*
X230027644Y-106849700D01*
X229825854Y-106788488D01*
X229616001Y-106767820D01*
X229615999Y-106767820D01*
X229406145Y-106788488D01*
X229204355Y-106849700D01*
X229204348Y-106849703D01*
X229018384Y-106949104D01*
X229009983Y-106955999D01*
X228924300Y-107001796D01*
X228827612Y-107011318D01*
X228734641Y-106983114D01*
X228675952Y-106939587D01*
X228012935Y-106276570D01*
X227996071Y-106255642D01*
X227995855Y-106255830D01*
X227984193Y-106242371D01*
X227946683Y-106209869D01*
X227940175Y-106203810D01*
X227930647Y-106194282D01*
X227930638Y-106194274D01*
X227919850Y-106186198D01*
X227912932Y-106180623D01*
X227875422Y-106148121D01*
X227860442Y-106138494D01*
X227860596Y-106138253D01*
X227860148Y-106137988D01*
X227860012Y-106138239D01*
X227844384Y-106129706D01*
X227844382Y-106129704D01*
X227797866Y-106112354D01*
X227789655Y-106108953D01*
X227744509Y-106088335D01*
X227727423Y-106083318D01*
X227727502Y-106083046D01*
X227726990Y-106082915D01*
X227726930Y-106083193D01*
X227709532Y-106079408D01*
X227660023Y-106075867D01*
X227651187Y-106074917D01*
X227637850Y-106073000D01*
X227624372Y-106073000D01*
X227615510Y-106072683D01*
X227575830Y-106069845D01*
X227565981Y-106069141D01*
X227565979Y-106069141D01*
X227565978Y-106069141D01*
X227565976Y-106069141D01*
X227548213Y-106070412D01*
X227548192Y-106070126D01*
X227521468Y-106073000D01*
X226630532Y-106073000D01*
X226603807Y-106070126D01*
X226603787Y-106070412D01*
X226586023Y-106069141D01*
X226586022Y-106069141D01*
X226586019Y-106069141D01*
X226586018Y-106069141D01*
X226573702Y-106070022D01*
X226536489Y-106072683D01*
X226527628Y-106073000D01*
X226514147Y-106073000D01*
X226500795Y-106074919D01*
X226491967Y-106075867D01*
X226442467Y-106079408D01*
X226425069Y-106083193D01*
X226425008Y-106082917D01*
X226424499Y-106083046D01*
X226424579Y-106083317D01*
X226407493Y-106088334D01*
X226362343Y-106108953D01*
X226354135Y-106112353D01*
X226307617Y-106129704D01*
X226291988Y-106138238D01*
X226291852Y-106137990D01*
X226291403Y-106138256D01*
X226291557Y-106138495D01*
X226276572Y-106148125D01*
X226239065Y-106180625D01*
X226232153Y-106186195D01*
X226221361Y-106194274D01*
X226221352Y-106194282D01*
X226211809Y-106203823D01*
X226205315Y-106209869D01*
X226167807Y-106242370D01*
X226156146Y-106255828D01*
X226155930Y-106255641D01*
X226139068Y-106276565D01*
X225652772Y-106762861D01*
X225571990Y-106816837D01*
X225476702Y-106835791D01*
X225381414Y-106816837D01*
X225333882Y-106790760D01*
X225198527Y-106695984D01*
X225198523Y-106695981D01*
X224989189Y-106598367D01*
X224936000Y-106584115D01*
X224936000Y-108060958D01*
X224930113Y-108045959D01*
X224845535Y-107939901D01*
X224733453Y-107863484D01*
X224603827Y-107823500D01*
X224502276Y-107823500D01*
X224401862Y-107838635D01*
X224279643Y-107897493D01*
X224180202Y-107989760D01*
X224135999Y-108066320D01*
X224136000Y-106584115D01*
X224082810Y-106598367D01*
X223873477Y-106695981D01*
X223684280Y-106828458D01*
X223520958Y-106991780D01*
X223388480Y-107180977D01*
X223350731Y-107261931D01*
X223293282Y-107340280D01*
X223210222Y-107390681D01*
X223114198Y-107405460D01*
X223019827Y-107382367D01*
X222941478Y-107324918D01*
X222905464Y-107274076D01*
X222890395Y-107245884D01*
X222890393Y-107245881D01*
X222756627Y-107082885D01*
X222756614Y-107082872D01*
X222593616Y-106949105D01*
X222407651Y-106849703D01*
X222407644Y-106849700D01*
X222205854Y-106788488D01*
X221996001Y-106767820D01*
X221995999Y-106767820D01*
X221786145Y-106788488D01*
X221584355Y-106849700D01*
X221584348Y-106849703D01*
X221398383Y-106949105D01*
X221235385Y-107082872D01*
X221235372Y-107082885D01*
X221101605Y-107245883D01*
X221002203Y-107431848D01*
X221002200Y-107431855D01*
X220964278Y-107556871D01*
X220918480Y-107642554D01*
X220843378Y-107704188D01*
X220750407Y-107732391D01*
X220653719Y-107722868D01*
X220568036Y-107677070D01*
X220506402Y-107601968D01*
X220487722Y-107556871D01*
X220449799Y-107431855D01*
X220449796Y-107431848D01*
X220350394Y-107245883D01*
X220350392Y-107245881D01*
X220306962Y-107192960D01*
X220216627Y-107082885D01*
X220216614Y-107082872D01*
X220053616Y-106949105D01*
X219867651Y-106849703D01*
X219867644Y-106849700D01*
X219665854Y-106788488D01*
X219456001Y-106767820D01*
X219455998Y-106767820D01*
X219238317Y-106789259D01*
X219141630Y-106779736D01*
X219055947Y-106733937D01*
X219037842Y-106717528D01*
X218449384Y-106129070D01*
X218432520Y-106108142D01*
X218432304Y-106108330D01*
X218420642Y-106094871D01*
X218397616Y-106074919D01*
X218383124Y-106062362D01*
X218376624Y-106056310D01*
X218367096Y-106046782D01*
X218367087Y-106046774D01*
X218356299Y-106038698D01*
X218349381Y-106033123D01*
X218311871Y-106000621D01*
X218296891Y-105990994D01*
X218297045Y-105990753D01*
X218296597Y-105990488D01*
X218296461Y-105990739D01*
X218280833Y-105982206D01*
X218280831Y-105982204D01*
X218234315Y-105964854D01*
X218226104Y-105961453D01*
X218180958Y-105940835D01*
X218163872Y-105935818D01*
X218163951Y-105935546D01*
X218163439Y-105935415D01*
X218163379Y-105935693D01*
X218145981Y-105931908D01*
X218096472Y-105928367D01*
X218087636Y-105927417D01*
X218074299Y-105925500D01*
X218060821Y-105925500D01*
X218051959Y-105925183D01*
X218012279Y-105922345D01*
X218002430Y-105921641D01*
X218002428Y-105921641D01*
X218002427Y-105921641D01*
X218002425Y-105921641D01*
X217984662Y-105922912D01*
X217984641Y-105922626D01*
X217957917Y-105925500D01*
X215472578Y-105925500D01*
X215445856Y-105922627D01*
X215445836Y-105922913D01*
X215428074Y-105921642D01*
X215428073Y-105921642D01*
X215428071Y-105921642D01*
X215428070Y-105921642D01*
X215378559Y-105925183D01*
X215369676Y-105925500D01*
X215356199Y-105925500D01*
X215348572Y-105926596D01*
X215342847Y-105927419D01*
X215334017Y-105928368D01*
X215284518Y-105931908D01*
X215267120Y-105935693D01*
X215267059Y-105935416D01*
X215266550Y-105935546D01*
X215266630Y-105935817D01*
X215249544Y-105940834D01*
X215204394Y-105961453D01*
X215196186Y-105964853D01*
X215149668Y-105982204D01*
X215134039Y-105990738D01*
X215133904Y-105990491D01*
X215133455Y-105990756D01*
X215133609Y-105990995D01*
X215118624Y-106000625D01*
X215081113Y-106033128D01*
X215074201Y-106038697D01*
X215063413Y-106046773D01*
X215063406Y-106046779D01*
X215053872Y-106056313D01*
X215047374Y-106062362D01*
X215009860Y-106094868D01*
X214998195Y-106108331D01*
X214997979Y-106108144D01*
X214981115Y-106129070D01*
X211661065Y-109449119D01*
X211640141Y-109465981D01*
X211640328Y-109466197D01*
X211626870Y-109477858D01*
X211594369Y-109515366D01*
X211588323Y-109521860D01*
X211578782Y-109531403D01*
X211578774Y-109531412D01*
X211570695Y-109542204D01*
X211565125Y-109549116D01*
X211532625Y-109586623D01*
X211522995Y-109601608D01*
X211522756Y-109601454D01*
X211522490Y-109601903D01*
X211522738Y-109602039D01*
X211514204Y-109617668D01*
X211496853Y-109664186D01*
X211493453Y-109672394D01*
X211472834Y-109717544D01*
X211467817Y-109734630D01*
X211467546Y-109734550D01*
X211467417Y-109735059D01*
X211467693Y-109735120D01*
X211463908Y-109752518D01*
X211460367Y-109802018D01*
X211459419Y-109810846D01*
X211457500Y-109824197D01*
X211457500Y-109837665D01*
X211457183Y-109846549D01*
X211453641Y-109896071D01*
X211454912Y-109913838D01*
X211454626Y-109913858D01*
X211457500Y-109940582D01*
X211457500Y-123242046D01*
X211438546Y-123337334D01*
X211384570Y-123418116D01*
X211303788Y-123472092D01*
X211208500Y-123491046D01*
X211113212Y-123472092D01*
X211108582Y-123469903D01*
X211099644Y-123466200D01*
X210897855Y-123404989D01*
X210833092Y-123398610D01*
X210740121Y-123370407D01*
X210665019Y-123308772D01*
X210619221Y-123223088D01*
X210608500Y-123150809D01*
X210608500Y-122218063D01*
X210624200Y-122131046D01*
X210626677Y-122124403D01*
X210637091Y-122096483D01*
X210643500Y-122036873D01*
X210643499Y-121041128D01*
X210637091Y-120981517D01*
X210586796Y-120846669D01*
X210500546Y-120731454D01*
X210385331Y-120645204D01*
X210305117Y-120615286D01*
X210250481Y-120594908D01*
X210190873Y-120588500D01*
X209395134Y-120588500D01*
X209395130Y-120588500D01*
X209395128Y-120588501D01*
X209382314Y-120589878D01*
X209335519Y-120594908D01*
X209335515Y-120594909D01*
X209200670Y-120645203D01*
X209085455Y-120731453D01*
X209085449Y-120731459D01*
X208992333Y-120855846D01*
X208920055Y-120920769D01*
X208828434Y-120953090D01*
X208731418Y-120947889D01*
X208643778Y-120905957D01*
X208593667Y-120855846D01*
X208500550Y-120731459D01*
X208500548Y-120731457D01*
X208500546Y-120731454D01*
X208385331Y-120645204D01*
X208305117Y-120615286D01*
X208250481Y-120594908D01*
X208190873Y-120588500D01*
X207395134Y-120588500D01*
X207395130Y-120588500D01*
X207395128Y-120588501D01*
X207382314Y-120589878D01*
X207335519Y-120594908D01*
X207335515Y-120594909D01*
X207200670Y-120645203D01*
X207085455Y-120731453D01*
X207085453Y-120731455D01*
X206999204Y-120846669D01*
X206948908Y-120981518D01*
X206942500Y-121041123D01*
X206942500Y-122036865D01*
X206942500Y-122036868D01*
X206942501Y-122036872D01*
X206944567Y-122056093D01*
X206948908Y-122096480D01*
X206948910Y-122096486D01*
X206951800Y-122104234D01*
X206967500Y-122191251D01*
X206967500Y-123140500D01*
X206948546Y-123235788D01*
X206894570Y-123316570D01*
X206813788Y-123370546D01*
X206718500Y-123389500D01*
X206043323Y-123389500D01*
X205970260Y-123404033D01*
X205887400Y-123459397D01*
X205887397Y-123459400D01*
X205832033Y-123542260D01*
X205817500Y-123615323D01*
X205817499Y-123615325D01*
X205817500Y-124980500D01*
X205798546Y-125075788D01*
X205744570Y-125156570D01*
X205663788Y-125210546D01*
X205568500Y-125229500D01*
X203554583Y-125229500D01*
X203527858Y-125226626D01*
X203527838Y-125226912D01*
X203510074Y-125225641D01*
X203510073Y-125225641D01*
X203510070Y-125225641D01*
X203510069Y-125225641D01*
X203497753Y-125226522D01*
X203460540Y-125229183D01*
X203451679Y-125229500D01*
X203438198Y-125229500D01*
X203424846Y-125231419D01*
X203416018Y-125232367D01*
X203366518Y-125235908D01*
X203349120Y-125239693D01*
X203349059Y-125239417D01*
X203348550Y-125239546D01*
X203348630Y-125239817D01*
X203331544Y-125244834D01*
X203286394Y-125265453D01*
X203278186Y-125268853D01*
X203231668Y-125286204D01*
X203216039Y-125294738D01*
X203215903Y-125294490D01*
X203215454Y-125294756D01*
X203215608Y-125294995D01*
X203200623Y-125304625D01*
X203163116Y-125337125D01*
X203156204Y-125342695D01*
X203145412Y-125350774D01*
X203145403Y-125350782D01*
X203135860Y-125360323D01*
X203129366Y-125366369D01*
X203091858Y-125398870D01*
X203080197Y-125412328D01*
X203079981Y-125412141D01*
X203063119Y-125433065D01*
X202785617Y-125710567D01*
X202704835Y-125764543D01*
X202609547Y-125783497D01*
X202514259Y-125764543D01*
X202433477Y-125710567D01*
X202379501Y-125629785D01*
X202361746Y-125558902D01*
X202359300Y-125534066D01*
X202341830Y-125476474D01*
X202299232Y-125336046D01*
X202201685Y-125153550D01*
X202201683Y-125153547D01*
X202070416Y-124993596D01*
X202070403Y-124993583D01*
X201910452Y-124862316D01*
X201727955Y-124764768D01*
X201727953Y-124764767D01*
X201541730Y-124708278D01*
X201456046Y-124662480D01*
X201394412Y-124587378D01*
X201366209Y-124494407D01*
X201375732Y-124397720D01*
X201421530Y-124312036D01*
X201496632Y-124250402D01*
X201541730Y-124231722D01*
X201629346Y-124205144D01*
X201727954Y-124175232D01*
X201910450Y-124077685D01*
X202003893Y-124000998D01*
X202070403Y-123946416D01*
X202070404Y-123946414D01*
X202070410Y-123946410D01*
X202201685Y-123786450D01*
X202299232Y-123603954D01*
X202359300Y-123405934D01*
X202379583Y-123200000D01*
X202359300Y-122994066D01*
X202299232Y-122796046D01*
X202201685Y-122613550D01*
X202201683Y-122613547D01*
X202070416Y-122453596D01*
X202070403Y-122453583D01*
X201910452Y-122322316D01*
X201727955Y-122224768D01*
X201529934Y-122164699D01*
X201375608Y-122149500D01*
X200684454Y-122149500D01*
X200589166Y-122130546D01*
X200508384Y-122076570D01*
X198414924Y-119983110D01*
X198360948Y-119902328D01*
X198341994Y-119807040D01*
X198360948Y-119711752D01*
X198414924Y-119630970D01*
X198495706Y-119576994D01*
X198565689Y-119559329D01*
X198622700Y-119553505D01*
X198622702Y-119553504D01*
X198789119Y-119498359D01*
X198789121Y-119498358D01*
X198938341Y-119406318D01*
X198938345Y-119406315D01*
X199062315Y-119282345D01*
X199062318Y-119282341D01*
X199154358Y-119133121D01*
X199154359Y-119133120D01*
X199209504Y-118966701D01*
X199209505Y-118966694D01*
X199219999Y-118863981D01*
X199220000Y-118863971D01*
X199220000Y-118764000D01*
X197969000Y-118764000D01*
X197873712Y-118745046D01*
X197792930Y-118691070D01*
X197738954Y-118610288D01*
X197720000Y-118515000D01*
X197720000Y-117164003D01*
X197719999Y-117164003D01*
X197617307Y-117174493D01*
X197617305Y-117174494D01*
X197450876Y-117229642D01*
X197301658Y-117321681D01*
X197301654Y-117321684D01*
X197177684Y-117445654D01*
X197177679Y-117445661D01*
X197163359Y-117468877D01*
X197097202Y-117540027D01*
X197008853Y-117580444D01*
X196911762Y-117583975D01*
X196820711Y-117550081D01*
X196802222Y-117537496D01*
X196712331Y-117470204D01*
X196632117Y-117440286D01*
X196577481Y-117419908D01*
X196517873Y-117413500D01*
X195722134Y-117413500D01*
X195722130Y-117413500D01*
X195722128Y-117413501D01*
X195709314Y-117414878D01*
X195662519Y-117419908D01*
X195662515Y-117419909D01*
X195527670Y-117470203D01*
X195412455Y-117556453D01*
X195412450Y-117556458D01*
X195352366Y-117636721D01*
X195280088Y-117701644D01*
X195188467Y-117733966D01*
X195153032Y-117736500D01*
X184738583Y-117736500D01*
X184711858Y-117733626D01*
X184711838Y-117733912D01*
X184694074Y-117732641D01*
X184694073Y-117732641D01*
X184694070Y-117732641D01*
X184694069Y-117732641D01*
X184681753Y-117733522D01*
X184644540Y-117736183D01*
X184635679Y-117736500D01*
X184622198Y-117736500D01*
X184608846Y-117738419D01*
X184600018Y-117739367D01*
X184550518Y-117742908D01*
X184533120Y-117746693D01*
X184533059Y-117746417D01*
X184532550Y-117746546D01*
X184532630Y-117746817D01*
X184515544Y-117751834D01*
X184470394Y-117772453D01*
X184462186Y-117775853D01*
X184415668Y-117793204D01*
X184400039Y-117801738D01*
X184399903Y-117801490D01*
X184399454Y-117801756D01*
X184399608Y-117801995D01*
X184384623Y-117811625D01*
X184347116Y-117844125D01*
X184340204Y-117849695D01*
X184329412Y-117857774D01*
X184329403Y-117857782D01*
X184319860Y-117867323D01*
X184313366Y-117873369D01*
X184275858Y-117905870D01*
X184264197Y-117919328D01*
X184263981Y-117919141D01*
X184247119Y-117940065D01*
X182890065Y-119297119D01*
X182869141Y-119313981D01*
X182869328Y-119314197D01*
X182855870Y-119325858D01*
X182823369Y-119363366D01*
X182817323Y-119369860D01*
X182807782Y-119379403D01*
X182807774Y-119379412D01*
X182799695Y-119390204D01*
X182794125Y-119397116D01*
X182761625Y-119434623D01*
X182751995Y-119449608D01*
X182751756Y-119449454D01*
X182751490Y-119449903D01*
X182751738Y-119450039D01*
X182743204Y-119465668D01*
X182725853Y-119512186D01*
X182722453Y-119520394D01*
X182701834Y-119565544D01*
X182696817Y-119582630D01*
X182696546Y-119582550D01*
X182696417Y-119583059D01*
X182696693Y-119583120D01*
X182692908Y-119600518D01*
X182689367Y-119650018D01*
X182688419Y-119658846D01*
X182686500Y-119672197D01*
X182686500Y-119685665D01*
X182686183Y-119694549D01*
X182682641Y-119744071D01*
X182683912Y-119761838D01*
X182683626Y-119761858D01*
X182686500Y-119788582D01*
X182686500Y-124178418D01*
X182683626Y-124205144D01*
X182683912Y-124205165D01*
X182682641Y-124222925D01*
X182682641Y-124222927D01*
X181937500Y-124222927D01*
X181937500Y-117164002D01*
X198520000Y-117164002D01*
X198520000Y-117963999D01*
X198520001Y-117964000D01*
X199219998Y-117964000D01*
X199219999Y-117963999D01*
X199219999Y-117864032D01*
X199219998Y-117864015D01*
X199209505Y-117761300D01*
X199209504Y-117761297D01*
X199154359Y-117594880D01*
X199154358Y-117594878D01*
X199062318Y-117445658D01*
X199062315Y-117445654D01*
X198938345Y-117321684D01*
X198938341Y-117321681D01*
X198789121Y-117229641D01*
X198789120Y-117229640D01*
X198622701Y-117174495D01*
X198622694Y-117174494D01*
X198520000Y-117164002D01*
X181937500Y-117164002D01*
X181937500Y-104653000D01*
X181956454Y-104557712D01*
X182010430Y-104476930D01*
X182091212Y-104422954D01*
X182186500Y-104404000D01*
X236913500Y-104404000D01*
X237008788Y-104422954D01*
G37*
%TD.AperFunction*%
%TD*%
M02*
