M48
; DRILL file {KiCad 7.0.5} date Fri Nov 17 15:07:01 2023
; FORMAT={-:-/ absolute / inch / decimal}
; #@! TF.CreationDate,2023-11-17T15:07:01+01:00
; #@! TF.GenerationSoftware,Kicad,Pcbnew,7.0.5
; #@! TF.FileFunction,MixedPlating,1,2
FMAT,2
INCH
; #@! TA.AperFunction,Plated,PTH,ViaDrill
T1C0.0315
; #@! TA.AperFunction,Plated,PTH,ComponentDrill
T2C0.0315
; #@! TA.AperFunction,Plated,PTH,ComponentDrill
T3C0.0354
; #@! TA.AperFunction,Plated,PTH,ComponentDrill
T4C0.0433
; #@! TA.AperFunction,Plated,PTH,ComponentDrill
T5C0.0472
; #@! TA.AperFunction,NonPlated,NPTH,ComponentDrill
T6C0.1260
%
G90
G05
T1
X8.7788Y-5.475
X9.184Y-5.48
T2
X7.5693Y-5.335
X7.57Y-5.505
X7.6104Y-4.8504
X7.6104Y-4.9504
X7.6104Y-5.0504
X7.6104Y-5.1504
X7.9104Y-4.8504
X7.9104Y-4.9504
X7.9104Y-5.0504
X7.9104Y-5.1504
X8.0693Y-5.335
X8.07Y-5.505
X8.6942Y-4.8186
X8.6942Y-4.9186
X8.6942Y-5.0186
X8.6942Y-5.1186
X8.7942Y-4.8686
X8.7942Y-4.9686
X8.7942Y-5.0686
X8.7942Y-5.1686
T3
X7.295Y-5.485
X7.3122Y-4.7494
X7.3122Y-4.8494
X7.3122Y-4.9494
X7.3122Y-5.0494
X7.3122Y-5.1494
X7.3122Y-5.2494
X7.395Y-5.485
X8.17Y-4.9
X8.17Y-5.0
X8.17Y-5.1
X8.27Y-4.9
X8.27Y-5.0
X8.27Y-5.1
X8.54Y-4.2627
X8.54Y-5.7225
X8.64Y-4.2627
X8.64Y-5.7225
X8.74Y-4.2627
X8.74Y-5.7225
X8.84Y-4.2627
X8.84Y-5.7225
X8.94Y-4.2627
X8.94Y-5.7225
X9.04Y-4.2627
X9.04Y-5.7225
T4
X8.2778Y-5.49
X8.2778Y-5.59
X8.2778Y-5.69
T5
X7.3857Y-5.7295
X7.3857Y-5.9695
X8.0943Y-5.7295
X8.0943Y-5.9695
T6
X9.0442Y-4.7686
X9.0442Y-5.2186
T0
M30
